<svg width="1054" height="782" viewBox="0 0 1054 782" fill="none" xmlns="http://www.w3.org/2000/svg">
<g id="Frame 1">
<g id="Group 1">
<path id="Rectangle 1" d="M102.728 48.5L107.343 36.5H131.272L126.657 48.5H102.728Z" fill="#C4C4C4" stroke="black"/>

<path id="Rectangle 2" d="M126.728 48.5L131.343 36.5H155.272L150.657 48.5H126.728Z" fill="#C4C4C4" stroke="black"/>
<path id="Rectangle 3" d="M150.728 48.5L155.343 36.5H179.272L174.657 48.5H150.728Z" fill="#C4C4C4" stroke="black"/>
<path id="Rectangle 4" d="M174.728 48.5L179.343 36.5H203.272L198.657 48.5H174.728Z" fill="#C4C4C4" stroke="black"/>
<path id="Rectangle 5" d="M198.728 48.5L203.343 36.5H227.272L222.657 48.5H198.728Z" fill="#C4C4C4" stroke="black"/>
<path id="Rectangle 6" d="M222.728 48.5L227.343 36.5H251.272L246.657 48.5H222.728Z" fill="#C4C4C4" stroke="black"/>
<path id="Rectangle 7" d="M246.728 48.5L251.343 36.5H275.272L270.657 48.5H246.728Z" fill="#C4C4C4" stroke="black"/>
<path id="Rectangle 8" d="M270.728 48.5L275.343 36.5H299.272L294.657 48.5H270.728Z" fill="#C4C4C4" stroke="black"/>
<path id="Rectangle 9" d="M294.728 48.5L299.343 36.5H323.272L318.657 48.5H294.728Z" fill="#C4C4C4" stroke="black"/>
<path id="Rectangle 10" d="M318.728 48.5L323.343 36.5H347.272L342.657 48.5H318.728Z" fill="#C4C4C4" stroke="black"/>
<path id="Rectangle 11" d="M342.728 48.5L347.343 36.5H371.272L366.657 48.5H342.728Z" fill="#C4C4C4" stroke="black"/>
<path id="Rectangle 12" d="M366.728 48.5L371.343 36.5H395.272L390.657 48.5H366.728Z" fill="#C4C4C4" stroke="black"/>
<path id="Rectangle 13" d="M390.728 48.5L395.343 36.5H419.272L414.657 48.5H390.728Z" fill="#C4C4C4" stroke="black"/>
<path id="Rectangle 14" d="M414.728 48.5L419.343 36.5H443.272L438.657 48.5H414.728Z" fill="#C4C4C4" stroke="black"/>
<path id="Rectangle 15" d="M438.728 48.5L443.343 36.5H467.272L462.657 48.5H438.728Z" fill="#C4C4C4" stroke="black"/>
<path id="Rectangle 16" d="M462.728 48.5L467.343 36.5H491.272L486.657 48.5H462.728Z" fill="#C4C4C4" stroke="black"/>
<path id="Rectangle 17" d="M486.728 48.5L491.343 36.5H515.272L510.657 48.5H486.728Z" fill="#C4C4C4" stroke="black"/>
<path id="Rectangle 18" d="M510.728 48.5L515.343 36.5H539.272L534.657 48.5H510.728Z" fill="#C4C4C4" stroke="black"/>
<path id="Rectangle 21" d="M582.728 48.5L587.343 36.5H611.272L606.657 48.5H582.728Z" fill="#C4C4C4" stroke="black"/>
<path id="Rectangle 22" d="M606.728 48.5L611.343 36.5H635.272L630.657 48.5H606.728Z" fill="#C4C4C4" stroke="black"/>
<path id="Rectangle 23" d="M630.728 48.5L635.343 36.5H659.272L654.657 48.5H630.728Z" fill="#C4C4C4" stroke="black"/>
<path id="Rectangle 24" d="M654.728 48.5L659.343 36.5H683.272L678.657 48.5H654.728Z" fill="#C4C4C4" stroke="black"/>
<path id="Rectangle 25" d="M678.728 48.5L683.343 36.5H707.272L702.657 48.5H678.728Z" fill="#C4C4C4" stroke="black"/>
<path id="Rectangle 26" d="M702.728 48.5L707.343 36.5H731.272L726.657 48.5H702.728Z" fill="#C4C4C4" stroke="black"/>
<path id="Rectangle 27" d="M726.728 48.5L731.343 36.5H755.272L750.657 48.5H726.728Z" fill="#C4C4C4" stroke="black"/>
<path id="Rectangle 28" d="M750.728 48.5L755.343 36.5H779.272L774.657 48.5H750.728Z" fill="#C4C4C4" stroke="black"/>
<path id="Rectangle 29" d="M774.728 48.5L779.343 36.5H803.272L798.657 48.5H774.728Z" fill="#C4C4C4" stroke="black"/>
<path id="Rectangle 30" d="M798.728 48.5L803.343 36.5H827.272L822.657 48.5H798.728Z" fill="#C4C4C4" stroke="black"/>
<path id="Rectangle 31" d="M822.728 48.5L827.343 36.5H851.272L846.657 48.5H822.728Z" fill="#C4C4C4" stroke="black"/>
<path id="Rectangle 32" d="M846.728 48.5L851.343 36.5H875.272L870.657 48.5H846.728Z" fill="#C4C4C4" stroke="black"/>
<path id="Rectangle 33" d="M870.728 48.5L875.343 36.5H899.272L894.657 48.5H870.728Z" fill="#C4C4C4" stroke="black"/>
<path id="Rectangle 34" d="M894.728 48.5L899.343 36.5H923.272L918.657 48.5H894.728Z" fill="#C4C4C4" stroke="black"/>
<path id="Rectangle 35" d="M918.728 48.5L923.343 36.5H947.272L942.657 48.5H918.728Z" fill="#C4C4C4" stroke="black"/>
<path id="Rectangle 36" d="M942.728 48.5L947.343 36.5H971.272L966.657 48.5H942.728Z" fill="#C4C4C4" stroke="black"/>
<path id="Rectangle 37" d="M966.728 48.5L971.343 36.5H995.272L990.657 48.5H966.728Z" fill="#C4C4C4" stroke="black"/>
<path id="Rectangle 38" d="M990.728 48.5L995.343 36.5H1019.5V48.5H990.728Z" fill="#C4C4C4" stroke="black"/>
<path id="Rectangle 19" d="M534.728 48.5L539.343 36.5H563.272L558.657 48.5H534.728Z" fill="#C4C4C4" stroke="black"/>
<path id="Rectangle 20" d="M558.728 48.5L563.343 36.5H587.272L582.657 48.5H558.728Z" fill="#C4C4C4" stroke="black"/>
<path id="Rectangle 39" d="M35.5196 48.5L35.9811 36.5H107.272L102.657 48.5H35.5196Z" fill="#C4C4C4" stroke="black"/>
</g>
<g id="Group 2">
<path id="Rectangle 1_2" d="M102.728 66.5L107.343 54.5H131.272L126.657 66.5H102.728Z" fill="#C4C4C4" stroke="black"/>
<path id="Rectangle 39_2" d="M35.5196 66.5L35.9811 54.5H107.272L102.657 66.5H35.5196Z" fill="#C4C4C4" stroke="black"/>
<path id="Rectangle 2_2" d="M126.728 66.5L131.343 54.5H155.272L150.657 66.5H126.728Z" fill="#C4C4C4" stroke="black"/>
<path id="Rectangle 3_2" d="M150.728 66.5L155.343 54.5H179.272L174.657 66.5H150.728Z" fill="#C4C4C4" stroke="black"/>
<path id="Rectangle 4_2" d="M174.728 66.5L179.343 54.5H203.272L198.657 66.5H174.728Z" fill="#C4C4C4" stroke="black"/>
<path id="Rectangle 5_2" d="M198.728 66.5L203.343 54.5H227.272L222.657 66.5H198.728Z" fill="#C4C4C4" stroke="black"/>
<path id="Rectangle 6_2" d="M222.728 66.5L227.343 54.5H251.272L246.657 66.5H222.728Z" fill="#C4C4C4" stroke="black"/>
<path id="Rectangle 7_2" d="M246.728 66.5L251.343 54.5H275.272L270.657 66.5H246.728Z" fill="#C4C4C4" stroke="black"/>
<path id="Rectangle 8_2" d="M270.728 66.5L275.343 54.5H299.272L294.657 66.5H270.728Z" fill="#C4C4C4" stroke="black"/>
<path id="Rectangle 9_2" d="M294.728 66.5L299.343 54.5H323.272L318.657 66.5H294.728Z" fill="#C4C4C4" stroke="black"/>
<path id="Rectangle 10_2" d="M318.728 66.5L323.343 54.5H347.272L342.657 66.5H318.728Z" fill="#C4C4C4" stroke="black"/>
<path id="Rectangle 11_2" d="M342.728 66.5L347.343 54.5H371.272L366.657 66.5H342.728Z" fill="#C4C4C4" stroke="black"/>
<path id="Rectangle 12_2" d="M366.728 66.5L371.343 54.5H395.272L390.657 66.5H366.728Z" fill="#C4C4C4" stroke="black"/>
<path id="Rectangle 13_2" d="M390.728 66.5L395.343 54.5H419.272L414.657 66.5H390.728Z" fill="#C4C4C4" stroke="black"/>
<path id="Rectangle 14_2" d="M414.728 66.5L419.343 54.5H443.272L438.657 66.5H414.728Z" fill="#C4C4C4" stroke="black"/>
<path id="Rectangle 15_2" d="M438.728 66.5L443.343 54.5H467.272L462.657 66.5H438.728Z" fill="#C4C4C4" stroke="black"/>
<path id="Rectangle 16_2" d="M462.728 66.5L467.343 54.5H491.272L486.657 66.5H462.728Z" fill="#C4C4C4" stroke="black"/>
<path id="Rectangle 17_2" d="M486.728 66.5L491.343 54.5H515.272L510.657 66.5H486.728Z" fill="#C4C4C4" stroke="black"/>
<path id="Rectangle 18_2" d="M510.728 66.5L515.343 54.5H539.272L534.657 66.5H510.728Z" fill="#C4C4C4" stroke="black"/>
<path id="Rectangle 21_2" d="M582.728 66.5L587.343 54.5H611.272L606.657 66.5H582.728Z" fill="#C4C4C4" stroke="black"/>
<path id="Rectangle 22_2" d="M606.728 66.5L611.343 54.5H635.272L630.657 66.5H606.728Z" fill="#C4C4C4" stroke="black"/>
<path id="Rectangle 23_2" d="M630.728 66.5L635.343 54.5H659.272L654.657 66.5H630.728Z" fill="#C4C4C4" stroke="black"/>
<path id="Rectangle 24_2" d="M654.728 66.5L659.343 54.5H683.272L678.657 66.5H654.728Z" fill="#C4C4C4" stroke="black"/>
<path id="Rectangle 25_2" d="M678.728 66.5L683.343 54.5H707.272L702.657 66.5H678.728Z" fill="#C4C4C4" stroke="black"/>
<path id="Rectangle 26_2" d="M702.728 66.5L707.343 54.5H731.272L726.657 66.5H702.728Z" fill="#C4C4C4" stroke="black"/>
<path id="Rectangle 27_2" d="M726.728 66.5L731.343 54.5H755.272L750.657 66.5H726.728Z" fill="#C4C4C4" stroke="black"/>
<path id="Rectangle 28_2" d="M750.728 66.5L755.343 54.5H779.272L774.657 66.5H750.728Z" fill="#C4C4C4" stroke="black"/>
<path id="Rectangle 29_2" d="M774.728 66.5L779.343 54.5H803.272L798.657 66.5H774.728Z" fill="#C4C4C4" stroke="black"/>
<path id="Rectangle 30_2" d="M798.728 66.5L803.343 54.5H827.272L822.657 66.5H798.728Z" fill="#C4C4C4" stroke="black"/>
<path id="Rectangle 31_2" d="M822.728 66.5L827.343 54.5H851.272L846.657 66.5H822.728Z" fill="#C4C4C4" stroke="black"/>
<path id="Rectangle 32_2" d="M846.728 66.5L851.343 54.5H875.272L870.657 66.5H846.728Z" fill="#C4C4C4" stroke="black"/>
<path id="Rectangle 33_2" d="M870.728 66.5L875.343 54.5H899.272L894.657 66.5H870.728Z" fill="#C4C4C4" stroke="black"/>
<path id="Rectangle 34_2" d="M894.728 66.5L899.343 54.5H923.272L918.657 66.5H894.728Z" fill="#C4C4C4" stroke="black"/>
<path id="Rectangle 35_2" d="M918.728 66.5L923.343 54.5H947.272L942.657 66.5H918.728Z" fill="#C4C4C4" stroke="black"/>
<path id="Rectangle 36_2" d="M942.728 66.5L947.343 54.5H971.272L966.657 66.5H942.728Z" fill="#C4C4C4" stroke="black"/>
<path id="Rectangle 37_2" d="M966.728 66.5L971.343 54.5H995.272L990.657 66.5H966.728Z" fill="#C4C4C4" stroke="black"/>
<path id="Rectangle 38_2" d="M990.728 66.5L995.343 54.5H1019.5V66.5H990.728Z" fill="#C4C4C4" stroke="black"/>
<path id="Rectangle 19_2" d="M534.728 66.5L539.343 54.5H563.272L558.657 66.5H534.728Z" fill="#C4C4C4" stroke="black"/>
<path id="Rectangle 20_2" d="M558.728 66.5L563.343 54.5H587.272L582.657 66.5H558.728Z" fill="#C4C4C4" stroke="black"/>
</g>
<g id="Group 3">
<path id="Rectangle 1_3" d="M102.728 84.5L107.343 72.5H131.272L126.657 84.5H102.728Z" fill="#C4C4C4" stroke="black"/>
<path id="Rectangle 39_3" d="M35.5196 84.5L35.9811 72.5H107.272L102.657 84.5H35.5196Z" fill="#C4C4C4" stroke="black"/>
<path id="Rectangle 2_3" d="M126.728 84.5L131.343 72.5H155.272L150.657 84.5H126.728Z" fill="#C4C4C4" stroke="black"/>
<path id="Rectangle 3_3" d="M150.728 84.5L155.343 72.5H179.272L174.657 84.5H150.728Z" fill="#C4C4C4" stroke="black"/>
<path id="Rectangle 4_3" d="M174.728 84.5L179.343 72.5H203.272L198.657 84.5H174.728Z" fill="#C4C4C4" stroke="black"/>
<path id="Rectangle 5_3" d="M198.728 84.5L203.343 72.5H227.272L222.657 84.5H198.728Z" fill="#C4C4C4" stroke="black"/>
<path id="Rectangle 6_3" d="M222.728 84.5L227.343 72.5H251.272L246.657 84.5H222.728Z" fill="#C4C4C4" stroke="black"/>
<path id="Rectangle 7_3" d="M246.728 84.5L251.343 72.5H275.272L270.657 84.5H246.728Z" fill="#C4C4C4" stroke="black"/>
<path id="Rectangle 8_3" d="M270.728 84.5L275.343 72.5H299.272L294.657 84.5H270.728Z" fill="#C4C4C4" stroke="black"/>
<path id="Rectangle 9_3" d="M294.728 84.5L299.343 72.5H323.272L318.657 84.5H294.728Z" fill="#C4C4C4" stroke="black"/>
<path id="Rectangle 10_3" d="M318.728 84.5L323.343 72.5H347.272L342.657 84.5H318.728Z" fill="#C4C4C4" stroke="black"/>
<path id="Rectangle 11_3" d="M342.728 84.5L347.343 72.5H371.272L366.657 84.5H342.728Z" fill="#C4C4C4" stroke="black"/>
<path id="Rectangle 12_3" d="M366.728 84.5L371.343 72.5H395.272L390.657 84.5H366.728Z" fill="#C4C4C4" stroke="black"/>
<path id="Rectangle 13_3" d="M390.728 84.5L395.343 72.5H419.272L414.657 84.5H390.728Z" fill="#C4C4C4" stroke="black"/>
<path id="Rectangle 14_3" d="M414.728 84.5L419.343 72.5H443.272L438.657 84.5H414.728Z" fill="#C4C4C4" stroke="black"/>
<path id="Rectangle 15_3" d="M438.728 84.5L443.343 72.5H467.272L462.657 84.5H438.728Z" fill="#C4C4C4" stroke="black"/>
<path id="Rectangle 16_3" d="M462.728 84.5L467.343 72.5H491.272L486.657 84.5H462.728Z" fill="#C4C4C4" stroke="black"/>
<path id="Rectangle 17_3" d="M486.728 84.5L491.343 72.5H515.272L510.657 84.5H486.728Z" fill="#C4C4C4" stroke="black"/>
<path id="Rectangle 18_3" d="M510.728 84.5L515.343 72.5H539.272L534.657 84.5H510.728Z" fill="#C4C4C4" stroke="black"/>
<path id="Rectangle 21_3" d="M582.728 84.5L587.343 72.5H611.272L606.657 84.5H582.728Z" fill="#C4C4C4" stroke="black"/>
<path id="Rectangle 22_3" d="M606.728 84.5L611.343 72.5H635.272L630.657 84.5H606.728Z" fill="#C4C4C4" stroke="black"/>
<path id="Rectangle 23_3" d="M630.728 84.5L635.343 72.5H659.272L654.657 84.5H630.728Z" fill="#C4C4C4" stroke="black"/>
<path id="Rectangle 24_3" d="M654.728 84.5L659.343 72.5H683.272L678.657 84.5H654.728Z" fill="#C4C4C4" stroke="black"/>
<path id="Rectangle 25_3" d="M678.728 84.5L683.343 72.5H707.272L702.657 84.5H678.728Z" fill="#C4C4C4" stroke="black"/>
<path id="Rectangle 26_3" d="M702.728 84.5L707.343 72.5H731.272L726.657 84.5H702.728Z" fill="#C4C4C4" stroke="black"/>
<path id="Rectangle 27_3" d="M726.728 84.5L731.343 72.5H755.272L750.657 84.5H726.728Z" fill="#C4C4C4" stroke="black"/>
<path id="Rectangle 28_3" d="M750.728 84.5L755.343 72.5H779.272L774.657 84.5H750.728Z" fill="#C4C4C4" stroke="black"/>
<path id="Rectangle 29_3" d="M774.728 84.5L779.343 72.5H803.272L798.657 84.5H774.728Z" fill="#C4C4C4" stroke="black"/>
<path id="Rectangle 30_3" d="M798.728 84.5L803.343 72.5H827.272L822.657 84.5H798.728Z" fill="#C4C4C4" stroke="black"/>
<path id="Rectangle 31_3" d="M822.728 84.5L827.343 72.5H851.272L846.657 84.5H822.728Z" fill="#C4C4C4" stroke="black"/>
<path id="Rectangle 32_3" d="M846.728 84.5L851.343 72.5H875.272L870.657 84.5H846.728Z" fill="#C4C4C4" stroke="black"/>
<path id="Rectangle 33_3" d="M870.728 84.5L875.343 72.5H899.272L894.657 84.5H870.728Z" fill="#C4C4C4" stroke="black"/>
<path id="Rectangle 34_3" d="M894.728 84.5L899.343 72.5H923.272L918.657 84.5H894.728Z" fill="#C4C4C4" stroke="black"/>
<path id="Rectangle 35_3" d="M918.728 84.5L923.343 72.5H947.272L942.657 84.5H918.728Z" fill="#C4C4C4" stroke="black"/>
<path id="Rectangle 36_3" d="M942.728 84.5L947.343 72.5H971.272L966.657 84.5H942.728Z" fill="#C4C4C4" stroke="black"/>
<path id="Rectangle 37_3" d="M966.728 84.5L971.343 72.5H995.272L990.657 84.5H966.728Z" fill="#C4C4C4" stroke="black"/>
<path id="Rectangle 38_3" d="M990.728 84.5L995.343 72.5H1019.5V84.5H990.728Z" fill="#C4C4C4" stroke="black"/>
<path id="Rectangle 19_3" d="M534.728 84.5L539.343 72.5H563.272L558.657 84.5H534.728Z" fill="#C4C4C4" stroke="black"/>
<path id="Rectangle 20_3" d="M558.728 84.5L563.343 72.5H587.272L582.657 84.5H558.728Z" fill="#C4C4C4" stroke="black"/>
</g>
<g id="Group 4">
<path id="Rectangle 1_4" d="M101.728 102.5L106.343 90.5H130.272L125.657 102.5H101.728Z" fill="#C4C4C4" stroke="black"/>
<path id="Rectangle 39_4" d="M34.5196 102.5L34.9811 90.5H106.272L101.657 102.5H34.5196Z" fill="#C4C4C4" stroke="black"/>
<path id="Rectangle 2_4" d="M125.728 102.5L130.343 90.5H154.272L149.657 102.5H125.728Z" fill="#C4C4C4" stroke="black"/>
<path id="Rectangle 3_4" d="M149.728 102.5L154.343 90.5H178.272L173.657 102.5H149.728Z" fill="#C4C4C4" stroke="black"/>
<path id="Rectangle 4_4" d="M173.728 102.5L178.343 90.5H202.272L197.657 102.5H173.728Z" fill="#C4C4C4" stroke="black"/>
<path id="Rectangle 5_4" d="M197.728 102.5L202.343 90.5H226.272L221.657 102.5H197.728Z" fill="#C4C4C4" stroke="black"/>
<path id="Rectangle 6_4" d="M221.728 102.5L226.343 90.5H250.272L245.657 102.5H221.728Z" fill="#C4C4C4" stroke="black"/>
<path id="Rectangle 7_4" d="M245.728 102.5L250.343 90.5H274.272L269.657 102.5H245.728Z" fill="#C4C4C4" stroke="black"/>
<path id="Rectangle 8_4" d="M269.728 102.5L274.343 90.5H298.272L293.657 102.5H269.728Z" fill="#C4C4C4" stroke="black"/>
<path id="Rectangle 9_4" d="M293.728 102.5L298.343 90.5H322.272L317.657 102.5H293.728Z" fill="#C4C4C4" stroke="black"/>
<path id="Rectangle 10_4" d="M317.728 102.5L322.343 90.5H346.272L341.657 102.5H317.728Z" fill="#C4C4C4" stroke="black"/>
<path id="Rectangle 11_4" d="M341.728 102.5L346.343 90.5H370.272L365.657 102.5H341.728Z" fill="#C4C4C4" stroke="black"/>
<path id="Rectangle 12_4" d="M365.728 102.5L370.343 90.5H394.272L389.657 102.5H365.728Z" fill="#C4C4C4" stroke="black"/>
<path id="Rectangle 13_4" d="M389.728 102.5L394.343 90.5H418.272L413.657 102.5H389.728Z" fill="#C4C4C4" stroke="black"/>
<path id="Rectangle 14_4" d="M413.728 102.5L418.343 90.5H442.272L437.657 102.5H413.728Z" fill="#C4C4C4" stroke="black"/>
<path id="Rectangle 15_4" d="M437.728 102.5L442.343 90.5H466.272L461.657 102.5H437.728Z" fill="#C4C4C4" stroke="black"/>
<path id="Rectangle 16_4" d="M461.728 102.5L466.343 90.5H490.272L485.657 102.5H461.728Z" fill="#C4C4C4" stroke="black"/>
<path id="Rectangle 17_4" d="M485.728 102.5L490.343 90.5H514.272L509.657 102.5H485.728Z" fill="#C4C4C4" stroke="black"/>
<path id="Rectangle 18_4" d="M509.728 102.5L514.343 90.5H538.272L533.657 102.5H509.728Z" fill="#C4C4C4" stroke="black"/>
<path id="Rectangle 21_4" d="M581.728 102.5L586.343 90.5H610.272L605.657 102.5H581.728Z" fill="#C4C4C4" stroke="black"/>
<path id="Rectangle 22_4" d="M605.728 102.5L610.343 90.5H634.272L629.657 102.5H605.728Z" fill="#C4C4C4" stroke="black"/>
<path id="Rectangle 23_4" d="M629.728 102.5L634.343 90.5H658.272L653.657 102.5H629.728Z" fill="#C4C4C4" stroke="black"/>
<path id="Rectangle 24_4" d="M653.728 102.5L658.343 90.5H682.272L677.657 102.5H653.728Z" fill="#C4C4C4" stroke="black"/>
<path id="Rectangle 25_4" d="M677.728 102.5L682.343 90.5H706.272L701.657 102.5H677.728Z" fill="#C4C4C4" stroke="black"/>
<path id="Rectangle 26_4" d="M701.728 102.5L706.343 90.5H730.272L725.657 102.5H701.728Z" fill="#C4C4C4" stroke="black"/>
<path id="Rectangle 27_4" d="M725.728 102.5L730.343 90.5H754.272L749.657 102.5H725.728Z" fill="#C4C4C4" stroke="black"/>
<path id="Rectangle 28_4" d="M749.728 102.5L754.343 90.5H778.272L773.657 102.5H749.728Z" fill="#C4C4C4" stroke="black"/>
<path id="Rectangle 29_4" d="M773.728 102.5L778.343 90.5H802.272L797.657 102.5H773.728Z" fill="#C4C4C4" stroke="black"/>
<path id="Rectangle 30_4" d="M797.728 102.5L802.343 90.5H826.272L821.657 102.5H797.728Z" fill="#C4C4C4" stroke="black"/>
<path id="Rectangle 31_4" d="M821.728 102.5L826.343 90.5H850.272L845.657 102.5H821.728Z" fill="#C4C4C4" stroke="black"/>
<path id="Rectangle 32_4" d="M845.728 102.5L850.343 90.5H874.272L869.657 102.5H845.728Z" fill="#C4C4C4" stroke="black"/>
<path id="Rectangle 33_4" d="M869.728 102.5L874.343 90.5H898.272L893.657 102.5H869.728Z" fill="#C4C4C4" stroke="black"/>
<path id="Rectangle 34_4" d="M893.728 102.5L898.343 90.5H922.272L917.657 102.5H893.728Z" fill="#C4C4C4" stroke="black"/>
<path id="Rectangle 35_4" d="M917.728 102.5L922.343 90.5H946.272L941.657 102.5H917.728Z" fill="#C4C4C4" stroke="black"/>
<path id="Rectangle 36_4" d="M941.728 102.5L946.343 90.5H970.272L965.657 102.5H941.728Z" fill="#C4C4C4" stroke="black"/>
<path id="Rectangle 37_4" d="M965.728 102.5L970.343 90.5H994.272L989.657 102.5H965.728Z" fill="#C4C4C4" stroke="black"/>
<path id="Rectangle 38_4" d="M989.728 102.5L994.343 90.5H1018.5V102.5H989.728Z" fill="#C4C4C4" stroke="black"/>
<path id="Rectangle 19_4" d="M533.728 102.5L538.343 90.5H562.272L557.657 102.5H533.728Z" fill="#C4C4C4" stroke="black"/>
<path id="Rectangle 20_4" d="M557.728 102.5L562.343 90.5H586.272L581.657 102.5H557.728Z" fill="#C4C4C4" stroke="black"/>
</g>
<g id="Group 5">
<path id="Rectangle 1_5" d="M102.728 120.5L107.343 108.5H131.272L126.657 120.5H102.728Z" fill="#C4C4C4" stroke="black"/>
<path id="Rectangle 39_5" d="M35.5196 120.5L35.9811 108.5H107.272L102.657 120.5H35.5196Z" fill="#C4C4C4" stroke="black"/>
<path id="Rectangle 2_5" d="M126.728 120.5L131.343 108.5H155.272L150.657 120.5H126.728Z" fill="#C4C4C4" stroke="black"/>
<path id="Rectangle 3_5" d="M150.728 120.5L155.343 108.5H179.272L174.657 120.5H150.728Z" fill="#C4C4C4" stroke="black"/>
<path id="Rectangle 4_5" d="M174.728 120.5L179.343 108.5H203.272L198.657 120.5H174.728Z" fill="#C4C4C4" stroke="black"/>
<path id="Rectangle 5_5" d="M198.728 120.5L203.343 108.5H227.272L222.657 120.5H198.728Z" fill="#C4C4C4" stroke="black"/>
<path id="Rectangle 6_5" d="M222.728 120.5L227.343 108.5H251.272L246.657 120.5H222.728Z" fill="#C4C4C4" stroke="black"/>
<path id="Rectangle 7_5" d="M246.728 120.5L251.343 108.5H275.272L270.657 120.5H246.728Z" fill="#C4C4C4" stroke="black"/>
<path id="Rectangle 8_5" d="M270.728 120.5L275.343 108.5H299.272L294.657 120.5H270.728Z" fill="#C4C4C4" stroke="black"/>
<path id="Rectangle 9_5" d="M294.728 120.5L299.343 108.5H323.272L318.657 120.5H294.728Z" fill="#C4C4C4" stroke="black"/>
<path id="Rectangle 10_5" d="M318.728 120.5L323.343 108.5H347.272L342.657 120.5H318.728Z" fill="#C4C4C4" stroke="black"/>
<path id="Rectangle 11_5" d="M342.728 120.5L347.343 108.5H371.272L366.657 120.5H342.728Z" fill="#C4C4C4" stroke="black"/>
<path id="Rectangle 12_5" d="M366.728 120.5L371.343 108.5H395.272L390.657 120.5H366.728Z" fill="#C4C4C4" stroke="black"/>
<path id="Rectangle 13_5" d="M390.728 120.5L395.343 108.5H419.272L414.657 120.5H390.728Z" fill="#C4C4C4" stroke="black"/>
<path id="Rectangle 14_5" d="M414.728 120.5L419.343 108.5H443.272L438.657 120.5H414.728Z" fill="#C4C4C4" stroke="black"/>
<path id="Rectangle 15_5" d="M438.728 120.5L443.343 108.5H467.272L462.657 120.5H438.728Z" fill="#C4C4C4" stroke="black"/>
<path id="Rectangle 16_5" d="M462.728 120.5L467.343 108.5H491.272L486.657 120.5H462.728Z" fill="#C4C4C4" stroke="black"/>
<path id="Rectangle 17_5" d="M486.728 120.5L491.343 108.5H515.272L510.657 120.5H486.728Z" fill="#C4C4C4" stroke="black"/>
<path id="Rectangle 18_5" d="M510.728 120.5L515.343 108.5H539.272L534.657 120.5H510.728Z" fill="#C4C4C4" stroke="black"/>
<path id="Rectangle 21_5" d="M582.728 120.5L587.343 108.5H611.272L606.657 120.5H582.728Z" fill="#C4C4C4" stroke="black"/>
<path id="Rectangle 22_5" d="M606.728 120.5L611.343 108.5H635.272L630.657 120.5H606.728Z" fill="#C4C4C4" stroke="black"/>
<path id="Rectangle 23_5" d="M630.728 120.5L635.343 108.5H659.272L654.657 120.5H630.728Z" fill="#C4C4C4" stroke="black"/>
<path id="Rectangle 24_5" d="M654.728 120.5L659.343 108.5H683.272L678.657 120.5H654.728Z" fill="#C4C4C4" stroke="black"/>
<path id="Rectangle 25_5" d="M678.728 120.5L683.343 108.5H707.272L702.657 120.5H678.728Z" fill="#C4C4C4" stroke="black"/>
<path id="Rectangle 26_5" d="M702.728 120.5L707.343 108.5H731.272L726.657 120.5H702.728Z" fill="#C4C4C4" stroke="black"/>
<path id="Rectangle 27_5" d="M726.728 120.5L731.343 108.5H755.272L750.657 120.5H726.728Z" fill="#C4C4C4" stroke="black"/>
<path id="Rectangle 28_5" d="M750.728 120.5L755.343 108.5H779.272L774.657 120.5H750.728Z" fill="#C4C4C4" stroke="black"/>
<path id="Rectangle 29_5" d="M774.728 120.5L779.343 108.5H803.272L798.657 120.5H774.728Z" fill="#C4C4C4" stroke="black"/>
<path id="Rectangle 30_5" d="M798.728 120.5L803.343 108.5H827.272L822.657 120.5H798.728Z" fill="#C4C4C4" stroke="black"/>
<path id="Rectangle 31_5" d="M822.728 120.5L827.343 108.5H851.272L846.657 120.5H822.728Z" fill="#C4C4C4" stroke="black"/>
<path id="Rectangle 32_5" d="M846.728 120.5L851.343 108.5H875.272L870.657 120.5H846.728Z" fill="#C4C4C4" stroke="black"/>
<path id="Rectangle 33_5" d="M870.728 120.5L875.343 108.5H899.272L894.657 120.5H870.728Z" fill="#C4C4C4" stroke="black"/>
<path id="Rectangle 34_5" d="M894.728 120.5L899.343 108.5H923.272L918.657 120.5H894.728Z" fill="#C4C4C4" stroke="black"/>
<path id="Rectangle 35_5" d="M918.728 120.5L923.343 108.5H947.272L942.657 120.5H918.728Z" fill="#C4C4C4" stroke="black"/>
<path id="Rectangle 36_5" d="M942.728 120.5L947.343 108.5H971.272L966.657 120.5H942.728Z" fill="#C4C4C4" stroke="black"/>
<path id="Rectangle 37_5" d="M966.728 120.5L971.343 108.5H995.272L990.657 120.5H966.728Z" fill="#C4C4C4" stroke="black"/>
<path id="Rectangle 38_5" d="M990.728 120.5L995.343 108.5H1019.5V120.5H990.728Z" fill="#C4C4C4" stroke="black"/>
<path id="Rectangle 19_5" d="M534.728 120.5L539.343 108.5H563.272L558.657 120.5H534.728Z" fill="#C4C4C4" stroke="black"/>
<path id="Rectangle 20_5" d="M558.728 120.5L563.343 108.5H587.272L582.657 120.5H558.728Z" fill="#C4C4C4" stroke="black"/>
</g>
<g id="Group 6">
<path id="Rectangle 1_6" d="M102.728 138.5L107.343 126.5H131.272L126.657 138.5H102.728Z" fill="#C4C4C4" stroke="black"/>
<path id="Rectangle 39_6" d="M35.5196 138.5L35.9811 126.5H107.272L102.657 138.5H35.5196Z" fill="#C4C4C4" stroke="black"/>
<path id="Rectangle 2_6" d="M126.728 138.5L131.343 126.5H155.272L150.657 138.5H126.728Z" fill="#C4C4C4" stroke="black"/>
<path id="Rectangle 3_6" d="M150.728 138.5L155.343 126.5H179.272L174.657 138.5H150.728Z" fill="#C4C4C4" stroke="black"/>
<path id="Rectangle 4_6" d="M174.728 138.5L179.343 126.5H203.272L198.657 138.5H174.728Z" fill="#C4C4C4" stroke="black"/>
<path id="Rectangle 5_6" d="M198.728 138.5L203.343 126.5H227.272L222.657 138.5H198.728Z" fill="#C4C4C4" stroke="black"/>
<path id="Rectangle 6_6" d="M222.728 138.5L227.343 126.5H251.272L246.657 138.5H222.728Z" fill="#C4C4C4" stroke="black"/>
<path id="Rectangle 7_6" d="M246.728 138.5L251.343 126.5H275.272L270.657 138.5H246.728Z" fill="#C4C4C4" stroke="black"/>
<path id="Rectangle 8_6" d="M270.728 138.5L275.343 126.5H299.272L294.657 138.5H270.728Z" fill="#C4C4C4" stroke="black"/>
<path id="Rectangle 9_6" d="M294.728 138.5L299.343 126.5H323.272L318.657 138.5H294.728Z" fill="#C4C4C4" stroke="black"/>
<path id="Rectangle 10_6" d="M318.728 138.5L323.343 126.5H347.272L342.657 138.5H318.728Z" fill="#C4C4C4" stroke="black"/>
<path id="Rectangle 11_6" d="M342.728 138.5L347.343 126.5H371.272L366.657 138.5H342.728Z" fill="#C4C4C4" stroke="black"/>
<path id="Rectangle 12_6" d="M366.728 138.5L371.343 126.5H395.272L390.657 138.5H366.728Z" fill="#C4C4C4" stroke="black"/>
<path id="Rectangle 13_6" d="M390.728 138.5L395.343 126.5H419.272L414.657 138.5H390.728Z" fill="#C4C4C4" stroke="black"/>
<path id="Rectangle 14_6" d="M414.728 138.5L419.343 126.5H443.272L438.657 138.5H414.728Z" fill="#C4C4C4" stroke="black"/>
<path id="Rectangle 15_6" d="M438.728 138.5L443.343 126.5H467.272L462.657 138.5H438.728Z" fill="#C4C4C4" stroke="black"/>
<path id="Rectangle 16_6" d="M462.728 138.5L467.343 126.5H491.272L486.657 138.5H462.728Z" fill="#C4C4C4" stroke="black"/>
<path id="Rectangle 17_6" d="M486.728 138.5L491.343 126.5H515.272L510.657 138.5H486.728Z" fill="#C4C4C4" stroke="black"/>
<path id="Rectangle 18_6" d="M510.728 138.5L515.343 126.5H539.272L534.657 138.5H510.728Z" fill="#C4C4C4" stroke="black"/>
<path id="Rectangle 21_6" d="M582.728 138.5L587.343 126.5H611.272L606.657 138.5H582.728Z" fill="#C4C4C4" stroke="black"/>
<path id="Rectangle 22_6" d="M606.728 138.5L611.343 126.5H635.272L630.657 138.5H606.728Z" fill="#C4C4C4" stroke="black"/>
<path id="Rectangle 23_6" d="M630.728 138.5L635.343 126.5H659.272L654.657 138.5H630.728Z" fill="#C4C4C4" stroke="black"/>
<path id="Rectangle 24_6" d="M654.728 138.5L659.343 126.5H683.272L678.657 138.5H654.728Z" fill="#C4C4C4" stroke="black"/>
<path id="Rectangle 25_6" d="M678.728 138.5L683.343 126.5H707.272L702.657 138.5H678.728Z" fill="#C4C4C4" stroke="black"/>
<path id="Rectangle 26_6" d="M702.728 138.5L707.343 126.5H731.272L726.657 138.5H702.728Z" fill="#C4C4C4" stroke="black"/>
<path id="Rectangle 27_6" d="M726.728 138.5L731.343 126.5H755.272L750.657 138.5H726.728Z" fill="#C4C4C4" stroke="black"/>
<path id="Rectangle 28_6" d="M750.728 138.5L755.343 126.5H779.272L774.657 138.5H750.728Z" fill="#C4C4C4" stroke="black"/>
<path id="Rectangle 29_6" d="M774.728 138.5L779.343 126.5H803.272L798.657 138.5H774.728Z" fill="#C4C4C4" stroke="black"/>
<path id="Rectangle 30_6" d="M798.728 138.5L803.343 126.5H827.272L822.657 138.5H798.728Z" fill="#C4C4C4" stroke="black"/>
<path id="Rectangle 31_6" d="M822.728 138.5L827.343 126.5H851.272L846.657 138.5H822.728Z" fill="#C4C4C4" stroke="black"/>
<path id="Rectangle 32_6" d="M846.728 138.5L851.343 126.5H875.272L870.657 138.5H846.728Z" fill="#C4C4C4" stroke="black"/>
<path id="Rectangle 33_6" d="M870.728 138.5L875.343 126.5H899.272L894.657 138.5H870.728Z" fill="#C4C4C4" stroke="black"/>
<path id="Rectangle 34_6" d="M894.728 138.5L899.343 126.5H923.272L918.657 138.5H894.728Z" fill="#C4C4C4" stroke="black"/>
<path id="Rectangle 35_6" d="M918.728 138.5L923.343 126.5H947.272L942.657 138.5H918.728Z" fill="#C4C4C4" stroke="black"/>
<path id="Rectangle 36_6" d="M942.728 138.5L947.343 126.5H971.272L966.657 138.5H942.728Z" fill="#C4C4C4" stroke="black"/>
<path id="Rectangle 37_6" d="M966.728 138.5L971.343 126.5H995.272L990.657 138.5H966.728Z" fill="#C4C4C4" stroke="black"/>
<path id="Rectangle 38_6" d="M990.728 138.5L995.343 126.5H1019.5V138.5H990.728Z" fill="#C4C4C4" stroke="black"/>
<path id="Rectangle 19_6" d="M534.728 138.5L539.343 126.5H563.272L558.657 138.5H534.728Z" fill="#C4C4C4" stroke="black"/>
<path id="Rectangle 20_6" d="M558.728 138.5L563.343 126.5H587.272L582.657 138.5H558.728Z" fill="#C4C4C4" stroke="black"/>
</g>
<g id="Group 7">
<path id="Rectangle 1_7" d="M102.728 156.5L107.343 144.5H131.272L126.657 156.5H102.728Z" fill="#C4C4C4" stroke="black"/>
<path id="Rectangle 39_7" d="M35.5196 156.5L35.9811 144.5H107.272L102.657 156.5H35.5196Z" fill="#C4C4C4" stroke="black"/>
<path id="Rectangle 2_7" d="M126.728 156.5L131.343 144.5H155.272L150.657 156.5H126.728Z" fill="#C4C4C4" stroke="black"/>
<path id="Rectangle 3_7" d="M150.728 156.5L155.343 144.5H179.272L174.657 156.5H150.728Z" fill="#C4C4C4" stroke="black"/>
<path id="Rectangle 4_7" d="M174.728 156.5L179.343 144.5H203.272L198.657 156.5H174.728Z" fill="#C4C4C4" stroke="black"/>
<path id="Rectangle 5_7" d="M198.728 156.5L203.343 144.5H227.272L222.657 156.5H198.728Z" fill="#C4C4C4" stroke="black"/>
<path id="Rectangle 6_7" d="M222.728 156.5L227.343 144.5H251.272L246.657 156.5H222.728Z" fill="#C4C4C4" stroke="black"/>
<path id="Rectangle 7_7" d="M246.728 156.5L251.343 144.5H275.272L270.657 156.5H246.728Z" fill="#C4C4C4" stroke="black"/>
<path id="Rectangle 8_7" d="M270.728 156.5L275.343 144.5H299.272L294.657 156.5H270.728Z" fill="#C4C4C4" stroke="black"/>
<path id="Rectangle 9_7" d="M294.728 156.5L299.343 144.5H323.272L318.657 156.5H294.728Z" fill="#C4C4C4" stroke="black"/>
<path id="Rectangle 10_7" d="M318.728 156.5L323.343 144.5H347.272L342.657 156.5H318.728Z" fill="#C4C4C4" stroke="black"/>
<path id="Rectangle 11_7" d="M342.728 156.5L347.343 144.5H371.272L366.657 156.5H342.728Z" fill="#C4C4C4" stroke="black"/>
<path id="Rectangle 12_7" d="M366.728 156.5L371.343 144.5H395.272L390.657 156.5H366.728Z" fill="#C4C4C4" stroke="black"/>
<path id="Rectangle 13_7" d="M390.728 156.5L395.343 144.5H419.272L414.657 156.5H390.728Z" fill="#C4C4C4" stroke="black"/>
<path id="Rectangle 14_7" d="M414.728 156.5L419.343 144.5H443.272L438.657 156.5H414.728Z" fill="#C4C4C4" stroke="black"/>
<path id="Rectangle 15_7" d="M438.728 156.5L443.343 144.5H467.272L462.657 156.5H438.728Z" fill="#C4C4C4" stroke="black"/>
<path id="Rectangle 16_7" d="M462.728 156.5L467.343 144.5H491.272L486.657 156.5H462.728Z" fill="#C4C4C4" stroke="black"/>
<path id="Rectangle 17_7" d="M486.728 156.5L491.343 144.5H515.272L510.657 156.5H486.728Z" fill="#C4C4C4" stroke="black"/>
<path id="Rectangle 18_7" d="M510.728 156.5L515.343 144.5H539.272L534.657 156.5H510.728Z" fill="#C4C4C4" stroke="black"/>
<path id="Rectangle 21_7" d="M582.728 156.5L587.343 144.5H611.272L606.657 156.5H582.728Z" fill="#C4C4C4" stroke="black"/>
<path id="Rectangle 22_7" d="M606.728 156.5L611.343 144.5H635.272L630.657 156.5H606.728Z" fill="#C4C4C4" stroke="black"/>
<path id="Rectangle 23_7" d="M630.728 156.5L635.343 144.5H659.272L654.657 156.5H630.728Z" fill="#C4C4C4" stroke="black"/>
<path id="Rectangle 24_7" d="M654.728 156.5L659.343 144.5H683.272L678.657 156.5H654.728Z" fill="#C4C4C4" stroke="black"/>
<path id="Rectangle 25_7" d="M678.728 156.5L683.343 144.5H707.272L702.657 156.5H678.728Z" fill="#C4C4C4" stroke="black"/>
<path id="Rectangle 26_7" d="M702.728 156.5L707.343 144.5H731.272L726.657 156.5H702.728Z" fill="#C4C4C4" stroke="black"/>
<path id="Rectangle 27_7" d="M726.728 156.5L731.343 144.5H755.272L750.657 156.5H726.728Z" fill="#C4C4C4" stroke="black"/>
<path id="Rectangle 28_7" d="M750.728 156.5L755.343 144.5H779.272L774.657 156.5H750.728Z" fill="#C4C4C4" stroke="black"/>
<path id="Rectangle 29_7" d="M774.728 156.5L779.343 144.5H803.272L798.657 156.5H774.728Z" fill="#C4C4C4" stroke="black"/>
<path id="Rectangle 30_7" d="M798.728 156.5L803.343 144.5H827.272L822.657 156.5H798.728Z" fill="#C4C4C4" stroke="black"/>
<path id="Rectangle 31_7" d="M822.728 156.5L827.343 144.5H851.272L846.657 156.5H822.728Z" fill="#C4C4C4" stroke="black"/>
<path id="Rectangle 32_7" d="M846.728 156.5L851.343 144.5H875.272L870.657 156.5H846.728Z" fill="#C4C4C4" stroke="black"/>
<path id="Rectangle 33_7" d="M870.728 156.5L875.343 144.5H899.272L894.657 156.5H870.728Z" fill="#C4C4C4" stroke="black"/>
<path id="Rectangle 34_7" d="M894.728 156.5L899.343 144.5H923.272L918.657 156.5H894.728Z" fill="#C4C4C4" stroke="black"/>
<path id="Rectangle 35_7" d="M918.728 156.5L923.343 144.5H947.272L942.657 156.5H918.728Z" fill="#C4C4C4" stroke="black"/>
<path id="Rectangle 36_7" d="M942.728 156.5L947.343 144.5H971.272L966.657 156.5H942.728Z" fill="#C4C4C4" stroke="black"/>
<path id="Rectangle 37_7" d="M966.728 156.5L971.343 144.5H995.272L990.657 156.5H966.728Z" fill="#C4C4C4" stroke="black"/>
<path id="Rectangle 38_7" d="M990.728 156.5L995.343 144.5H1019.5V156.5H990.728Z" fill="#C4C4C4" stroke="black"/>
<path id="Rectangle 19_7" d="M534.728 156.5L539.343 144.5H563.272L558.657 156.5H534.728Z" fill="#C4C4C4" stroke="black"/>
<path id="Rectangle 20_7" d="M558.728 156.5L563.343 144.5H587.272L582.657 156.5H558.728Z" fill="#C4C4C4" stroke="black"/>
</g>
<g id="Group 8">
<path id="Rectangle 1_8" d="M102.728 174.5L107.343 162.5H131.272L126.657 174.5H102.728Z" fill="#C4C4C4" stroke="black"/>
<path id="Rectangle 39_8" d="M35.5196 174.5L35.9811 162.5H107.272L102.657 174.5H35.5196Z" fill="#C4C4C4" stroke="black"/>
<path id="Rectangle 2_8" d="M126.728 174.5L131.343 162.5H155.272L150.657 174.5H126.728Z" fill="#C4C4C4" stroke="black"/>
<path id="Rectangle 3_8" d="M150.728 174.5L155.343 162.5H179.272L174.657 174.5H150.728Z" fill="#C4C4C4" stroke="black"/>
<path id="Rectangle 4_8" d="M174.728 174.5L179.343 162.5H203.272L198.657 174.5H174.728Z" fill="#C4C4C4" stroke="black"/>
<path id="Rectangle 5_8" d="M198.728 174.5L203.343 162.5H227.272L222.657 174.5H198.728Z" fill="#C4C4C4" stroke="black"/>
<path id="Rectangle 6_8" d="M222.728 174.5L227.343 162.5H251.272L246.657 174.5H222.728Z" fill="#C4C4C4" stroke="black"/>
<path id="Rectangle 7_8" d="M246.728 174.5L251.343 162.5H275.272L270.657 174.5H246.728Z" fill="#C4C4C4" stroke="black"/>
<path id="Rectangle 8_8" d="M270.728 174.5L275.343 162.5H299.272L294.657 174.5H270.728Z" fill="#C4C4C4" stroke="black"/>
<path id="Rectangle 9_8" d="M294.728 174.5L299.343 162.5H323.272L318.657 174.5H294.728Z" fill="#C4C4C4" stroke="black"/>
<path id="Rectangle 10_8" d="M318.728 174.5L323.343 162.5H347.272L342.657 174.5H318.728Z" fill="#C4C4C4" stroke="black"/>
<path id="Rectangle 11_8" d="M342.728 174.5L347.343 162.5H371.272L366.657 174.5H342.728Z" fill="#C4C4C4" stroke="black"/>
<path id="Rectangle 12_8" d="M366.728 174.5L371.343 162.5H395.272L390.657 174.5H366.728Z" fill="#C4C4C4" stroke="black"/>
<path id="Rectangle 13_8" d="M390.728 174.5L395.343 162.5H419.272L414.657 174.5H390.728Z" fill="#C4C4C4" stroke="black"/>
<path id="Rectangle 14_8" d="M414.728 174.5L419.343 162.5H443.272L438.657 174.5H414.728Z" fill="#C4C4C4" stroke="black"/>
<path id="Rectangle 15_8" d="M438.728 174.5L443.343 162.5H467.272L462.657 174.5H438.728Z" fill="#C4C4C4" stroke="black"/>
<path id="Rectangle 16_8" d="M462.728 174.5L467.343 162.5H491.272L486.657 174.5H462.728Z" fill="#C4C4C4" stroke="black"/>
<path id="Rectangle 17_8" d="M486.728 174.5L491.343 162.5H515.272L510.657 174.5H486.728Z" fill="#C4C4C4" stroke="black"/>
<path id="Rectangle 18_8" d="M510.728 174.5L515.343 162.5H539.272L534.657 174.5H510.728Z" fill="#C4C4C4" stroke="black"/>
<path id="Rectangle 21_8" d="M582.728 174.5L587.343 162.5H611.272L606.657 174.5H582.728Z" fill="#C4C4C4" stroke="black"/>
<path id="Rectangle 22_8" d="M606.728 174.5L611.343 162.5H635.272L630.657 174.5H606.728Z" fill="#C4C4C4" stroke="black"/>
<path id="Rectangle 23_8" d="M630.728 174.5L635.343 162.5H659.272L654.657 174.5H630.728Z" fill="#C4C4C4" stroke="black"/>
<path id="Rectangle 24_8" d="M654.728 174.5L659.343 162.5H683.272L678.657 174.5H654.728Z" fill="#C4C4C4" stroke="black"/>
<path id="Rectangle 25_8" d="M678.728 174.5L683.343 162.5H707.272L702.657 174.5H678.728Z" fill="#C4C4C4" stroke="black"/>
<path id="Rectangle 26_8" d="M702.728 174.5L707.343 162.5H731.272L726.657 174.5H702.728Z" fill="#C4C4C4" stroke="black"/>
<path id="Rectangle 27_8" d="M726.728 174.5L731.343 162.5H755.272L750.657 174.5H726.728Z" fill="#C4C4C4" stroke="black"/>
<path id="Rectangle 28_8" d="M750.728 174.5L755.343 162.5H779.272L774.657 174.5H750.728Z" fill="#C4C4C4" stroke="black"/>
<path id="Rectangle 29_8" d="M774.728 174.5L779.343 162.5H803.272L798.657 174.5H774.728Z" fill="#C4C4C4" stroke="black"/>
<path id="Rectangle 30_8" d="M798.728 174.5L803.343 162.5H827.272L822.657 174.5H798.728Z" fill="#C4C4C4" stroke="black"/>
<path id="Rectangle 31_8" d="M822.728 174.5L827.343 162.5H851.272L846.657 174.5H822.728Z" fill="#C4C4C4" stroke="black"/>
<path id="Rectangle 32_8" d="M846.728 174.5L851.343 162.5H875.272L870.657 174.5H846.728Z" fill="#C4C4C4" stroke="black"/>
<path id="Rectangle 33_8" d="M870.728 174.5L875.343 162.5H899.272L894.657 174.5H870.728Z" fill="#C4C4C4" stroke="black"/>
<path id="Rectangle 34_8" d="M894.728 174.5L899.343 162.5H923.272L918.657 174.5H894.728Z" fill="#C4C4C4" stroke="black"/>
<path id="Rectangle 35_8" d="M918.728 174.5L923.343 162.5H947.272L942.657 174.5H918.728Z" fill="#C4C4C4" stroke="black"/>
<path id="Rectangle 36_8" d="M942.728 174.5L947.343 162.5H971.272L966.657 174.5H942.728Z" fill="#C4C4C4" stroke="black"/>
<path id="Rectangle 37_8" d="M966.728 174.5L971.343 162.5H995.272L990.657 174.5H966.728Z" fill="#C4C4C4" stroke="black"/>
<path id="Rectangle 38_8" d="M990.728 174.5L995.343 162.5H1019.5V174.5H990.728Z" fill="#C4C4C4" stroke="black"/>
<path id="Rectangle 19_8" d="M534.728 174.5L539.343 162.5H563.272L558.657 174.5H534.728Z" fill="#C4C4C4" stroke="black"/>
<path id="Rectangle 20_8" d="M558.728 174.5L563.343 162.5H587.272L582.657 174.5H558.728Z" fill="#C4C4C4" stroke="black"/>
</g>
<g id="Group 9">
<path id="Rectangle 1_9" d="M101.728 192.5L106.343 180.5H130.272L125.657 192.5H101.728Z" fill="#C4C4C4" stroke="black"/>
<path id="Rectangle 39_9" d="M34.5196 192.5L34.9811 180.5H106.272L101.657 192.5H34.5196Z" fill="#C4C4C4" stroke="black"/>
<path id="Rectangle 2_9" d="M125.728 192.5L130.343 180.5H154.272L149.657 192.5H125.728Z" fill="#C4C4C4" stroke="black"/>
<path id="Rectangle 3_9" d="M149.728 192.5L154.343 180.5H178.272L173.657 192.5H149.728Z" fill="#C4C4C4" stroke="black"/>
<path id="Rectangle 4_9" d="M173.728 192.5L178.343 180.5H202.272L197.657 192.5H173.728Z" fill="#C4C4C4" stroke="black"/>
<path id="Rectangle 5_9" d="M197.728 192.5L202.343 180.5H226.272L221.657 192.5H197.728Z" fill="#C4C4C4" stroke="black"/>
<path id="Rectangle 6_9" d="M221.728 192.5L226.343 180.5H250.272L245.657 192.5H221.728Z" fill="#C4C4C4" stroke="black"/>
<path id="Rectangle 7_9" d="M245.728 192.5L250.343 180.5H274.272L269.657 192.5H245.728Z" fill="#C4C4C4" stroke="black"/>
<path id="Rectangle 8_9" d="M269.728 192.5L274.343 180.5H298.272L293.657 192.5H269.728Z" fill="#C4C4C4" stroke="black"/>
<path id="Rectangle 9_9" d="M293.728 192.5L298.343 180.5H322.272L317.657 192.5H293.728Z" fill="#C4C4C4" stroke="black"/>
<path id="Rectangle 10_9" d="M317.728 192.5L322.343 180.5H346.272L341.657 192.5H317.728Z" fill="#C4C4C4" stroke="black"/>
<path id="Rectangle 11_9" d="M341.728 192.5L346.343 180.5H370.272L365.657 192.5H341.728Z" fill="#C4C4C4" stroke="black"/>
<path id="Rectangle 12_9" d="M365.728 192.5L370.343 180.5H394.272L389.657 192.5H365.728Z" fill="#C4C4C4" stroke="black"/>
<path id="Rectangle 13_9" d="M389.728 192.5L394.343 180.5H418.272L413.657 192.5H389.728Z" fill="#C4C4C4" stroke="black"/>
<path id="Rectangle 14_9" d="M413.728 192.5L418.343 180.5H442.272L437.657 192.5H413.728Z" fill="#C4C4C4" stroke="black"/>
<path id="Rectangle 15_9" d="M437.728 192.5L442.343 180.5H466.272L461.657 192.5H437.728Z" fill="#C4C4C4" stroke="black"/>
<path id="Rectangle 16_9" d="M461.728 192.5L466.343 180.5H490.272L485.657 192.5H461.728Z" fill="#C4C4C4" stroke="black"/>
<path id="Rectangle 17_9" d="M485.728 192.5L490.343 180.5H514.272L509.657 192.5H485.728Z" fill="#C4C4C4" stroke="black"/>
<path id="Rectangle 18_9" d="M509.728 192.5L514.343 180.5H538.272L533.657 192.5H509.728Z" fill="#C4C4C4" stroke="black"/>
<path id="Rectangle 21_9" d="M581.728 192.5L586.343 180.5H610.272L605.657 192.5H581.728Z" fill="#C4C4C4" stroke="black"/>
<path id="Rectangle 22_9" d="M605.728 192.5L610.343 180.5H634.272L629.657 192.5H605.728Z" fill="#C4C4C4" stroke="black"/>
<path id="Rectangle 23_9" d="M629.728 192.5L634.343 180.5H658.272L653.657 192.5H629.728Z" fill="#C4C4C4" stroke="black"/>
<path id="Rectangle 24_9" d="M653.728 192.5L658.343 180.5H682.272L677.657 192.5H653.728Z" fill="#C4C4C4" stroke="black"/>
<path id="Rectangle 25_9" d="M677.728 192.5L682.343 180.5H706.272L701.657 192.5H677.728Z" fill="#C4C4C4" stroke="black"/>
<path id="Rectangle 26_9" d="M701.728 192.5L706.343 180.5H730.272L725.657 192.5H701.728Z" fill="#C4C4C4" stroke="black"/>
<path id="Rectangle 27_9" d="M725.728 192.5L730.343 180.5H754.272L749.657 192.5H725.728Z" fill="#C4C4C4" stroke="black"/>
<path id="Rectangle 28_9" d="M749.728 192.5L754.343 180.5H778.272L773.657 192.5H749.728Z" fill="#C4C4C4" stroke="black"/>
<path id="Rectangle 29_9" d="M773.728 192.5L778.343 180.5H802.272L797.657 192.5H773.728Z" fill="#C4C4C4" stroke="black"/>
<path id="Rectangle 30_9" d="M797.728 192.5L802.343 180.5H826.272L821.657 192.5H797.728Z" fill="#C4C4C4" stroke="black"/>
<path id="Rectangle 31_9" d="M821.728 192.5L826.343 180.5H850.272L845.657 192.5H821.728Z" fill="#C4C4C4" stroke="black"/>
<path id="Rectangle 32_9" d="M845.728 192.5L850.343 180.5H874.272L869.657 192.5H845.728Z" fill="#C4C4C4" stroke="black"/>
<path id="Rectangle 33_9" d="M869.728 192.5L874.343 180.5H898.272L893.657 192.5H869.728Z" fill="#C4C4C4" stroke="black"/>
<path id="Rectangle 34_9" d="M893.728 192.5L898.343 180.5H922.272L917.657 192.5H893.728Z" fill="#C4C4C4" stroke="black"/>
<path id="Rectangle 35_9" d="M917.728 192.5L922.343 180.5H946.272L941.657 192.5H917.728Z" fill="#C4C4C4" stroke="black"/>
<path id="Rectangle 36_9" d="M941.728 192.5L946.343 180.5H970.272L965.657 192.5H941.728Z" fill="#C4C4C4" stroke="black"/>
<path id="Rectangle 37_9" d="M965.728 192.5L970.343 180.5H994.272L989.657 192.5H965.728Z" fill="#C4C4C4" stroke="black"/>
<path id="Rectangle 38_9" d="M989.728 192.5L994.343 180.5H1018.5V192.5H989.728Z" fill="#C4C4C4" stroke="black"/>
<path id="Rectangle 19_9" d="M533.728 192.5L538.343 180.5H562.272L557.657 192.5H533.728Z" fill="#C4C4C4" stroke="black"/>
<path id="Rectangle 20_9" d="M557.728 192.5L562.343 180.5H586.272L581.657 192.5H557.728Z" fill="#C4C4C4" stroke="black"/>
</g>
<g id="Group 10">
<path id="Rectangle 1_10" d="M102.728 210.5L107.343 198.5H131.272L126.657 210.5H102.728Z" fill="#C4C4C4" stroke="black"/>
<path id="Rectangle 39_10" d="M35.5196 210.5L35.9811 198.5H107.272L102.657 210.5H35.5196Z" fill="#C4C4C4" stroke="black"/>
<path id="Rectangle 2_10" d="M126.728 210.5L131.343 198.5H155.272L150.657 210.5H126.728Z" fill="#C4C4C4" stroke="black"/>
<path id="Rectangle 3_10" d="M150.728 210.5L155.343 198.5H179.272L174.657 210.5H150.728Z" fill="#C4C4C4" stroke="black"/>
<path id="Rectangle 4_10" d="M174.728 210.5L179.343 198.5H203.272L198.657 210.5H174.728Z" fill="#C4C4C4" stroke="black"/>
<path id="Rectangle 5_10" d="M198.728 210.5L203.343 198.5H227.272L222.657 210.5H198.728Z" fill="#C4C4C4" stroke="black"/>
<path id="Rectangle 6_10" d="M222.728 210.5L227.343 198.5H251.272L246.657 210.5H222.728Z" fill="#C4C4C4" stroke="black"/>
<path id="Rectangle 7_10" d="M246.728 210.5L251.343 198.5H275.272L270.657 210.5H246.728Z" fill="#C4C4C4" stroke="black"/>
<path id="Rectangle 8_10" d="M270.728 210.5L275.343 198.5H299.272L294.657 210.5H270.728Z" fill="#C4C4C4" stroke="black"/>
<path id="Rectangle 9_10" d="M294.728 210.5L299.343 198.5H323.272L318.657 210.5H294.728Z" fill="#C4C4C4" stroke="black"/>
<path id="Rectangle 10_10" d="M318.728 210.5L323.343 198.5H347.272L342.657 210.5H318.728Z" fill="#C4C4C4" stroke="black"/>
<path id="Rectangle 11_10" d="M342.728 210.5L347.343 198.5H371.272L366.657 210.5H342.728Z" fill="#C4C4C4" stroke="black"/>
<path id="Rectangle 12_10" d="M366.728 210.5L371.343 198.5H395.272L390.657 210.5H366.728Z" fill="#C4C4C4" stroke="black"/>
<path id="Rectangle 13_10" d="M390.728 210.5L395.343 198.5H419.272L414.657 210.5H390.728Z" fill="#C4C4C4" stroke="black"/>
<path id="Rectangle 14_10" d="M414.728 210.5L419.343 198.5H443.272L438.657 210.5H414.728Z" fill="#C4C4C4" stroke="black"/>
<path id="Rectangle 15_10" d="M438.728 210.5L443.343 198.5H467.272L462.657 210.5H438.728Z" fill="#C4C4C4" stroke="black"/>
<path id="Rectangle 16_10" d="M462.728 210.5L467.343 198.5H491.272L486.657 210.5H462.728Z" fill="#C4C4C4" stroke="black"/>
<path id="Rectangle 17_10" d="M486.728 210.5L491.343 198.5H515.272L510.657 210.5H486.728Z" fill="#C4C4C4" stroke="black"/>
<path id="Rectangle 18_10" d="M510.728 210.5L515.343 198.5H539.272L534.657 210.5H510.728Z" fill="#C4C4C4" stroke="black"/>
<path id="Rectangle 21_10" d="M582.728 210.5L587.343 198.5H611.272L606.657 210.5H582.728Z" fill="#C4C4C4" stroke="black"/>
<path id="Rectangle 22_10" d="M606.728 210.5L611.343 198.5H635.272L630.657 210.5H606.728Z" fill="#C4C4C4" stroke="black"/>
<path id="Rectangle 23_10" d="M630.728 210.5L635.343 198.5H659.272L654.657 210.5H630.728Z" fill="#C4C4C4" stroke="black"/>
<path id="Rectangle 24_10" d="M654.728 210.5L659.343 198.5H683.272L678.657 210.5H654.728Z" fill="#C4C4C4" stroke="black"/>
<path id="Rectangle 25_10" d="M678.728 210.5L683.343 198.5H707.272L702.657 210.5H678.728Z" fill="#C4C4C4" stroke="black"/>
<path id="Rectangle 26_10" d="M702.728 210.5L707.343 198.5H731.272L726.657 210.5H702.728Z" fill="#C4C4C4" stroke="black"/>
<path id="Rectangle 27_10" d="M726.728 210.5L731.343 198.5H755.272L750.657 210.5H726.728Z" fill="#C4C4C4" stroke="black"/>
<path id="Rectangle 28_10" d="M750.728 210.5L755.343 198.5H779.272L774.657 210.5H750.728Z" fill="#C4C4C4" stroke="black"/>
<path id="Rectangle 29_10" d="M774.728 210.5L779.343 198.5H803.272L798.657 210.5H774.728Z" fill="#C4C4C4" stroke="black"/>
<path id="Rectangle 30_10" d="M798.728 210.5L803.343 198.5H827.272L822.657 210.5H798.728Z" fill="#C4C4C4" stroke="black"/>
<path id="Rectangle 31_10" d="M822.728 210.5L827.343 198.5H851.272L846.657 210.5H822.728Z" fill="#C4C4C4" stroke="black"/>
<path id="Rectangle 32_10" d="M846.728 210.5L851.343 198.5H875.272L870.657 210.5H846.728Z" fill="#C4C4C4" stroke="black"/>
<path id="Rectangle 33_10" d="M870.728 210.5L875.343 198.5H899.272L894.657 210.5H870.728Z" fill="#C4C4C4" stroke="black"/>
<path id="Rectangle 34_10" d="M894.728 210.5L899.343 198.5H923.272L918.657 210.5H894.728Z" fill="#C4C4C4" stroke="black"/>
<path id="Rectangle 35_10" d="M918.728 210.5L923.343 198.5H947.272L942.657 210.5H918.728Z" fill="#C4C4C4" stroke="black"/>
<path id="Rectangle 36_10" d="M942.728 210.5L947.343 198.5H971.272L966.657 210.5H942.728Z" fill="#C4C4C4" stroke="black"/>
<path id="Rectangle 37_10" d="M966.728 210.5L971.343 198.5H995.272L990.657 210.5H966.728Z" fill="#C4C4C4" stroke="black"/>
<path id="Rectangle 38_10" d="M990.728 210.5L995.343 198.5H1019.5V210.5H990.728Z" fill="#C4C4C4" stroke="black"/>
<path id="Rectangle 19_10" d="M534.728 210.5L539.343 198.5H563.272L558.657 210.5H534.728Z" fill="#C4C4C4" stroke="black"/>
<path id="Rectangle 20_10" d="M558.728 210.5L563.343 198.5H587.272L582.657 210.5H558.728Z" fill="#C4C4C4" stroke="black"/>
</g>
<g id="Group 11">
<path id="Rectangle 1_11" d="M103.728 228.5L108.343 216.5H132.272L127.657 228.5H103.728Z" fill="#C4C4C4" stroke="black"/>
<path id="Rectangle 39_11" d="M36.5196 228.5L36.9811 216.5H108.272L103.657 228.5H36.5196Z" fill="#C4C4C4" stroke="black"/>
<path id="Rectangle 2_11" d="M127.728 228.5L132.343 216.5H156.272L151.657 228.5H127.728Z" fill="#C4C4C4" stroke="black"/>
<path id="Rectangle 3_11" d="M151.728 228.5L156.343 216.5H180.272L175.657 228.5H151.728Z" fill="#C4C4C4" stroke="black"/>
<path id="Rectangle 4_11" d="M175.728 228.5L180.343 216.5H204.272L199.657 228.5H175.728Z" fill="#C4C4C4" stroke="black"/>
<path id="Rectangle 5_11" d="M199.728 228.5L204.343 216.5H228.272L223.657 228.5H199.728Z" fill="#C4C4C4" stroke="black"/>
<path id="Rectangle 6_11" d="M223.728 228.5L228.343 216.5H252.272L247.657 228.5H223.728Z" fill="#C4C4C4" stroke="black"/>
<path id="Rectangle 7_11" d="M247.728 228.5L252.343 216.5H276.272L271.657 228.5H247.728Z" fill="#C4C4C4" stroke="black"/>
<path id="Rectangle 8_11" d="M271.728 228.5L276.343 216.5H300.272L295.657 228.5H271.728Z" fill="#C4C4C4" stroke="black"/>
<path id="Rectangle 9_11" d="M295.728 228.5L300.343 216.5H324.272L319.657 228.5H295.728Z" fill="#C4C4C4" stroke="black"/>
<path id="Rectangle 10_11" d="M319.728 228.5L324.343 216.5H348.272L343.657 228.5H319.728Z" fill="#C4C4C4" stroke="black"/>
<path id="Rectangle 11_11" d="M343.728 228.5L348.343 216.5H372.272L367.657 228.5H343.728Z" fill="#C4C4C4" stroke="black"/>
<path id="Rectangle 12_11" d="M367.728 228.5L372.343 216.5H396.272L391.657 228.5H367.728Z" fill="#C4C4C4" stroke="black"/>
<path id="Rectangle 13_11" d="M391.728 228.5L396.343 216.5H420.272L415.657 228.5H391.728Z" fill="#C4C4C4" stroke="black"/>
<path id="Rectangle 14_11" d="M415.728 228.5L420.343 216.5H444.272L439.657 228.5H415.728Z" fill="#C4C4C4" stroke="black"/>
<path id="Rectangle 15_11" d="M439.728 228.5L444.343 216.5H468.272L463.657 228.5H439.728Z" fill="#C4C4C4" stroke="black"/>
<path id="Rectangle 16_11" d="M463.728 228.5L468.343 216.5H492.272L487.657 228.5H463.728Z" fill="#C4C4C4" stroke="black"/>
<path id="Rectangle 17_11" d="M487.728 228.5L492.343 216.5H516.272L511.657 228.5H487.728Z" fill="#C4C4C4" stroke="black"/>
<path id="Rectangle 18_11" d="M511.728 228.5L516.343 216.5H540.272L535.657 228.5H511.728Z" fill="#C4C4C4" stroke="black"/>
<path id="Rectangle 21_11" d="M583.728 228.5L588.343 216.5H612.272L607.657 228.5H583.728Z" fill="#C4C4C4" stroke="black"/>
<path id="Rectangle 22_11" d="M607.728 228.5L612.343 216.5H636.272L631.657 228.5H607.728Z" fill="#C4C4C4" stroke="black"/>
<path id="Rectangle 23_11" d="M631.728 228.5L636.343 216.5H660.272L655.657 228.5H631.728Z" fill="#C4C4C4" stroke="black"/>
<path id="Rectangle 24_11" d="M655.728 228.5L660.343 216.5H684.272L679.657 228.5H655.728Z" fill="#C4C4C4" stroke="black"/>
<path id="Rectangle 25_11" d="M679.728 228.5L684.343 216.5H708.272L703.657 228.5H679.728Z" fill="#C4C4C4" stroke="black"/>
<path id="Rectangle 26_11" d="M703.728 228.5L708.343 216.5H732.272L727.657 228.5H703.728Z" fill="#C4C4C4" stroke="black"/>
<path id="Rectangle 27_11" d="M727.728 228.5L732.343 216.5H756.272L751.657 228.5H727.728Z" fill="#C4C4C4" stroke="black"/>
<path id="Rectangle 28_11" d="M751.728 228.5L756.343 216.5H780.272L775.657 228.5H751.728Z" fill="#C4C4C4" stroke="black"/>
<path id="Rectangle 29_11" d="M775.728 228.5L780.343 216.5H804.272L799.657 228.5H775.728Z" fill="#C4C4C4" stroke="black"/>
<path id="Rectangle 30_11" d="M799.728 228.5L804.343 216.5H828.272L823.657 228.5H799.728Z" fill="#C4C4C4" stroke="black"/>
<path id="Rectangle 31_11" d="M823.728 228.5L828.343 216.5H852.272L847.657 228.5H823.728Z" fill="#C4C4C4" stroke="black"/>
<path id="Rectangle 32_11" d="M847.728 228.5L852.343 216.5H876.272L871.657 228.5H847.728Z" fill="#C4C4C4" stroke="black"/>
<path id="Rectangle 33_11" d="M871.728 228.5L876.343 216.5H900.272L895.657 228.5H871.728Z" fill="#C4C4C4" stroke="black"/>
<path id="Rectangle 34_11" d="M895.728 228.5L900.343 216.5H924.272L919.657 228.5H895.728Z" fill="#C4C4C4" stroke="black"/>
<path id="Rectangle 35_11" d="M919.728 228.5L924.343 216.5H948.272L943.657 228.5H919.728Z" fill="#C4C4C4" stroke="black"/>
<path id="Rectangle 36_11" d="M943.728 228.5L948.343 216.5H972.272L967.657 228.5H943.728Z" fill="#C4C4C4" stroke="black"/>
<path id="Rectangle 37_11" d="M967.728 228.5L972.343 216.5H996.272L991.657 228.5H967.728Z" fill="#C4C4C4" stroke="black"/>
<path id="Rectangle 38_11" d="M991.728 228.5L996.343 216.5H1020.5V228.5H991.728Z" fill="#C4C4C4" stroke="black"/>
<path id="Rectangle 19_11" d="M535.728 228.5L540.343 216.5H564.272L559.657 228.5H535.728Z" fill="#C4C4C4" stroke="black"/>
<path id="Rectangle 20_11" d="M559.728 228.5L564.343 216.5H588.272L583.657 228.5H559.728Z" fill="#C4C4C4" stroke="black"/>
</g>
<g id="Group 12">
<path id="Rectangle 1_12" d="M103.728 246.5L108.343 234.5H132.272L127.657 246.5H103.728Z" fill="#C4C4C4" stroke="black"/>
<path id="Rectangle 39_12" d="M36.5196 246.5L36.9811 234.5H108.272L103.657 246.5H36.5196Z" fill="#C4C4C4" stroke="black"/>
<path id="Rectangle 2_12" d="M127.728 246.5L132.343 234.5H156.272L151.657 246.5H127.728Z" fill="#C4C4C4" stroke="black"/>
<path id="Rectangle 3_12" d="M151.728 246.5L156.343 234.5H180.272L175.657 246.5H151.728Z" fill="#C4C4C4" stroke="black"/>
<path id="Rectangle 4_12" d="M175.728 246.5L180.343 234.5H204.272L199.657 246.5H175.728Z" fill="#C4C4C4" stroke="black"/>
<path id="Rectangle 5_12" d="M199.728 246.5L204.343 234.5H228.272L223.657 246.5H199.728Z" fill="#C4C4C4" stroke="black"/>
<path id="Rectangle 6_12" d="M223.728 246.5L228.343 234.5H252.272L247.657 246.5H223.728Z" fill="#C4C4C4" stroke="black"/>
<path id="Rectangle 7_12" d="M247.728 246.5L252.343 234.5H276.272L271.657 246.5H247.728Z" fill="#C4C4C4" stroke="black"/>
<path id="Rectangle 8_12" d="M271.728 246.5L276.343 234.5H300.272L295.657 246.5H271.728Z" fill="#C4C4C4" stroke="black"/>
<path id="Rectangle 9_12" d="M295.728 246.5L300.343 234.5H324.272L319.657 246.5H295.728Z" fill="#C4C4C4" stroke="black"/>
<path id="Rectangle 10_12" d="M319.728 246.5L324.343 234.5H348.272L343.657 246.5H319.728Z" fill="#C4C4C4" stroke="black"/>
<path id="Rectangle 11_12" d="M343.728 246.5L348.343 234.5H372.272L367.657 246.5H343.728Z" fill="#C4C4C4" stroke="black"/>
<path id="Rectangle 12_12" d="M367.728 246.5L372.343 234.5H396.272L391.657 246.5H367.728Z" fill="#C4C4C4" stroke="black"/>
<path id="Rectangle 13_12" d="M391.728 246.5L396.343 234.5H420.272L415.657 246.5H391.728Z" fill="#C4C4C4" stroke="black"/>
<path id="Rectangle 14_12" d="M415.728 246.5L420.343 234.5H444.272L439.657 246.5H415.728Z" fill="#C4C4C4" stroke="black"/>
<path id="Rectangle 15_12" d="M439.728 246.5L444.343 234.5H468.272L463.657 246.5H439.728Z" fill="#C4C4C4" stroke="black"/>
<path id="Rectangle 16_12" d="M463.728 246.5L468.343 234.5H492.272L487.657 246.5H463.728Z" fill="#C4C4C4" stroke="black"/>
<path id="Rectangle 17_12" d="M487.728 246.5L492.343 234.5H516.272L511.657 246.5H487.728Z" fill="#C4C4C4" stroke="black"/>
<path id="Rectangle 18_12" d="M511.728 246.5L516.343 234.5H540.272L535.657 246.5H511.728Z" fill="#C4C4C4" stroke="black"/>
<path id="Rectangle 21_12" d="M583.728 246.5L588.343 234.5H612.272L607.657 246.5H583.728Z" fill="#C4C4C4" stroke="black"/>
<path id="Rectangle 22_12" d="M607.728 246.5L612.343 234.5H636.272L631.657 246.5H607.728Z" fill="#C4C4C4" stroke="black"/>
<path id="Rectangle 23_12" d="M631.728 246.5L636.343 234.5H660.272L655.657 246.5H631.728Z" fill="#C4C4C4" stroke="black"/>
<path id="Rectangle 24_12" d="M655.728 246.5L660.343 234.5H684.272L679.657 246.5H655.728Z" fill="#C4C4C4" stroke="black"/>
<path id="Rectangle 25_12" d="M679.728 246.5L684.343 234.5H708.272L703.657 246.5H679.728Z" fill="#C4C4C4" stroke="black"/>
<path id="Rectangle 26_12" d="M703.728 246.5L708.343 234.5H732.272L727.657 246.5H703.728Z" fill="#C4C4C4" stroke="black"/>
<path id="Rectangle 27_12" d="M727.728 246.5L732.343 234.5H756.272L751.657 246.5H727.728Z" fill="#C4C4C4" stroke="black"/>
<path id="Rectangle 28_12" d="M751.728 246.5L756.343 234.5H780.272L775.657 246.5H751.728Z" fill="#C4C4C4" stroke="black"/>
<path id="Rectangle 29_12" d="M775.728 246.5L780.343 234.5H804.272L799.657 246.5H775.728Z" fill="#C4C4C4" stroke="black"/>
<path id="Rectangle 30_12" d="M799.728 246.5L804.343 234.5H828.272L823.657 246.5H799.728Z" fill="#C4C4C4" stroke="black"/>
<path id="Rectangle 31_12" d="M823.728 246.5L828.343 234.5H852.272L847.657 246.5H823.728Z" fill="#C4C4C4" stroke="black"/>
<path id="Rectangle 32_12" d="M847.728 246.5L852.343 234.5H876.272L871.657 246.5H847.728Z" fill="#C4C4C4" stroke="black"/>
<path id="Rectangle 33_12" d="M871.728 246.5L876.343 234.5H900.272L895.657 246.5H871.728Z" fill="#C4C4C4" stroke="black"/>
<path id="Rectangle 34_12" d="M895.728 246.5L900.343 234.5H924.272L919.657 246.5H895.728Z" fill="#C4C4C4" stroke="black"/>
<path id="Rectangle 35_12" d="M919.728 246.5L924.343 234.5H948.272L943.657 246.5H919.728Z" fill="#C4C4C4" stroke="black"/>
<path id="Rectangle 36_12" d="M943.728 246.5L948.343 234.5H972.272L967.657 246.5H943.728Z" fill="#C4C4C4" stroke="black"/>
<path id="Rectangle 37_12" d="M967.728 246.5L972.343 234.5H996.272L991.657 246.5H967.728Z" fill="#C4C4C4" stroke="black"/>
<path id="Rectangle 38_12" d="M991.728 246.5L996.343 234.5H1020.5V246.5H991.728Z" fill="#C4C4C4" stroke="black"/>
<path id="Rectangle 19_12" d="M535.728 246.5L540.343 234.5H564.272L559.657 246.5H535.728Z" fill="#C4C4C4" stroke="black"/>
<path id="Rectangle 20_12" d="M559.728 246.5L564.343 234.5H588.272L583.657 246.5H559.728Z" fill="#C4C4C4" stroke="black"/>
</g>
<g id="Group 13">
<path id="Rectangle 1_13" d="M103.728 264.5L108.343 252.5H132.272L127.657 264.5H103.728Z" fill="#C4C4C4" stroke="black"/>
<path id="Rectangle 39_13" d="M36.5196 264.5L36.9811 252.5H108.272L103.657 264.5H36.5196Z" fill="#C4C4C4" stroke="black"/>
<path id="Rectangle 2_13" d="M127.728 264.5L132.343 252.5H156.272L151.657 264.5H127.728Z" fill="#C4C4C4" stroke="black"/>
<path id="Rectangle 3_13" d="M151.728 264.5L156.343 252.5H180.272L175.657 264.5H151.728Z" fill="#C4C4C4" stroke="black"/>
<path id="Rectangle 4_13" d="M175.728 264.5L180.343 252.5H204.272L199.657 264.5H175.728Z" fill="#C4C4C4" stroke="black"/>
<path id="Rectangle 5_13" d="M199.728 264.5L204.343 252.5H228.272L223.657 264.5H199.728Z" fill="#C4C4C4" stroke="black"/>
<path id="Rectangle 6_13" d="M223.728 264.5L228.343 252.5H252.272L247.657 264.5H223.728Z" fill="#C4C4C4" stroke="black"/>
<path id="Rectangle 7_13" d="M247.728 264.5L252.343 252.5H276.272L271.657 264.5H247.728Z" fill="#C4C4C4" stroke="black"/>
<path id="Rectangle 8_13" d="M271.728 264.5L276.343 252.5H300.272L295.657 264.5H271.728Z" fill="#C4C4C4" stroke="black"/>
<path id="Rectangle 9_13" d="M295.728 264.5L300.343 252.5H324.272L319.657 264.5H295.728Z" fill="#C4C4C4" stroke="black"/>
<path id="Rectangle 10_13" d="M319.728 264.5L324.343 252.5H348.272L343.657 264.5H319.728Z" fill="#C4C4C4" stroke="black"/>
<path id="Rectangle 11_13" d="M343.728 264.5L348.343 252.5H372.272L367.657 264.5H343.728Z" fill="#C4C4C4" stroke="black"/>
<path id="Rectangle 12_13" d="M367.728 264.5L372.343 252.5H396.272L391.657 264.5H367.728Z" fill="#C4C4C4" stroke="black"/>
<path id="Rectangle 13_13" d="M391.728 264.5L396.343 252.5H420.272L415.657 264.5H391.728Z" fill="#C4C4C4" stroke="black"/>
<path id="Rectangle 14_13" d="M415.728 264.5L420.343 252.5H444.272L439.657 264.5H415.728Z" fill="#C4C4C4" stroke="black"/>
<path id="Rectangle 15_13" d="M439.728 264.5L444.343 252.5H468.272L463.657 264.5H439.728Z" fill="#C4C4C4" stroke="black"/>
<path id="Rectangle 16_13" d="M463.728 264.5L468.343 252.5H492.272L487.657 264.5H463.728Z" fill="#C4C4C4" stroke="black"/>
<path id="Rectangle 17_13" d="M487.728 264.5L492.343 252.5H516.272L511.657 264.5H487.728Z" fill="#C4C4C4" stroke="black"/>
<path id="Rectangle 18_13" d="M511.728 264.5L516.343 252.5H540.272L535.657 264.5H511.728Z" fill="#C4C4C4" stroke="black"/>
<path id="Rectangle 21_13" d="M583.728 264.5L588.343 252.5H612.272L607.657 264.5H583.728Z" fill="#C4C4C4" stroke="black"/>
<path id="Rectangle 22_13" d="M607.728 264.5L612.343 252.5H636.272L631.657 264.5H607.728Z" fill="#C4C4C4" stroke="black"/>
<path id="Rectangle 23_13" d="M631.728 264.5L636.343 252.5H660.272L655.657 264.5H631.728Z" fill="#C4C4C4" stroke="black"/>
<path id="Rectangle 24_13" d="M655.728 264.5L660.343 252.5H684.272L679.657 264.5H655.728Z" fill="#C4C4C4" stroke="black"/>
<path id="Rectangle 25_13" d="M679.728 264.5L684.343 252.5H708.272L703.657 264.5H679.728Z" fill="#C4C4C4" stroke="black"/>
<path id="Rectangle 26_13" d="M703.728 264.5L708.343 252.5H732.272L727.657 264.5H703.728Z" fill="#C4C4C4" stroke="black"/>
<path id="Rectangle 27_13" d="M727.728 264.5L732.343 252.5H756.272L751.657 264.5H727.728Z" fill="#C4C4C4" stroke="black"/>
<path id="Rectangle 28_13" d="M751.728 264.5L756.343 252.5H780.272L775.657 264.5H751.728Z" fill="#C4C4C4" stroke="black"/>
<path id="Rectangle 29_13" d="M775.728 264.5L780.343 252.5H804.272L799.657 264.5H775.728Z" fill="#C4C4C4" stroke="black"/>
<path id="Rectangle 30_13" d="M799.728 264.5L804.343 252.5H828.272L823.657 264.5H799.728Z" fill="#C4C4C4" stroke="black"/>
<path id="Rectangle 31_13" d="M823.728 264.5L828.343 252.5H852.272L847.657 264.5H823.728Z" fill="#C4C4C4" stroke="black"/>
<path id="Rectangle 32_13" d="M847.728 264.5L852.343 252.5H876.272L871.657 264.5H847.728Z" fill="#C4C4C4" stroke="black"/>
<path id="Rectangle 33_13" d="M871.728 264.5L876.343 252.5H900.272L895.657 264.5H871.728Z" fill="#C4C4C4" stroke="black"/>
<path id="Rectangle 34_13" d="M895.728 264.5L900.343 252.5H924.272L919.657 264.5H895.728Z" fill="#C4C4C4" stroke="black"/>
<path id="Rectangle 35_13" d="M919.728 264.5L924.343 252.5H948.272L943.657 264.5H919.728Z" fill="#C4C4C4" stroke="black"/>
<path id="Rectangle 36_13" d="M943.728 264.5L948.343 252.5H972.272L967.657 264.5H943.728Z" fill="#C4C4C4" stroke="black"/>
<path id="Rectangle 37_13" d="M967.728 264.5L972.343 252.5H996.272L991.657 264.5H967.728Z" fill="#C4C4C4" stroke="black"/>
<path id="Rectangle 38_13" d="M991.728 264.5L996.343 252.5H1020.5V264.5H991.728Z" fill="#C4C4C4" stroke="black"/>
<path id="Rectangle 19_13" d="M535.728 264.5L540.343 252.5H564.272L559.657 264.5H535.728Z" fill="#C4C4C4" stroke="black"/>
<path id="Rectangle 20_13" d="M559.728 264.5L564.343 252.5H588.272L583.657 264.5H559.728Z" fill="#C4C4C4" stroke="black"/>
</g>
<g id="Group 14">
<path id="Rectangle 1_14" d="M102.728 282.5L107.343 270.5H131.272L126.657 282.5H102.728Z" fill="#C4C4C4" stroke="black"/>
<path id="Rectangle 39_14" d="M35.5196 282.5L35.9811 270.5H107.272L102.657 282.5H35.5196Z" fill="#C4C4C4" stroke="black"/>
<path id="Rectangle 2_14" d="M126.728 282.5L131.343 270.5H155.272L150.657 282.5H126.728Z" fill="#C4C4C4" stroke="black"/>
<path id="Rectangle 3_14" d="M150.728 282.5L155.343 270.5H179.272L174.657 282.5H150.728Z" fill="#C4C4C4" stroke="black"/>
<path id="Rectangle 4_14" d="M174.728 282.5L179.343 270.5H203.272L198.657 282.5H174.728Z" fill="#C4C4C4" stroke="black"/>
<path id="Rectangle 5_14" d="M198.728 282.5L203.343 270.5H227.272L222.657 282.5H198.728Z" fill="#C4C4C4" stroke="black"/>
<path id="Rectangle 6_14" d="M222.728 282.5L227.343 270.5H251.272L246.657 282.5H222.728Z" fill="#C4C4C4" stroke="black"/>
<path id="Rectangle 7_14" d="M246.728 282.5L251.343 270.5H275.272L270.657 282.5H246.728Z" fill="#C4C4C4" stroke="black"/>
<path id="Rectangle 8_14" d="M270.728 282.5L275.343 270.5H299.272L294.657 282.5H270.728Z" fill="#C4C4C4" stroke="black"/>
<path id="Rectangle 9_14" d="M294.728 282.5L299.343 270.5H323.272L318.657 282.5H294.728Z" fill="#C4C4C4" stroke="black"/>
<path id="Rectangle 10_14" d="M318.728 282.5L323.343 270.5H347.272L342.657 282.5H318.728Z" fill="#C4C4C4" stroke="black"/>
<path id="Rectangle 11_14" d="M342.728 282.5L347.343 270.5H371.272L366.657 282.5H342.728Z" fill="#C4C4C4" stroke="black"/>
<path id="Rectangle 12_14" d="M366.728 282.5L371.343 270.5H395.272L390.657 282.5H366.728Z" fill="#C4C4C4" stroke="black"/>
<path id="Rectangle 13_14" d="M390.728 282.5L395.343 270.5H419.272L414.657 282.5H390.728Z" fill="#C4C4C4" stroke="black"/>
<path id="Rectangle 14_14" d="M414.728 282.5L419.343 270.5H443.272L438.657 282.5H414.728Z" fill="#C4C4C4" stroke="black"/>
<path id="Rectangle 15_14" d="M438.728 282.5L443.343 270.5H467.272L462.657 282.5H438.728Z" fill="#C4C4C4" stroke="black"/>
<path id="Rectangle 16_14" d="M462.728 282.5L467.343 270.5H491.272L486.657 282.5H462.728Z" fill="#C4C4C4" stroke="black"/>
<path id="Rectangle 17_14" d="M486.728 282.5L491.343 270.5H515.272L510.657 282.5H486.728Z" fill="#C4C4C4" stroke="black"/>
<path id="Rectangle 18_14" d="M510.728 282.5L515.343 270.5H539.272L534.657 282.5H510.728Z" fill="#C4C4C4" stroke="black"/>
<path id="Rectangle 21_14" d="M582.728 282.5L587.343 270.5H611.272L606.657 282.5H582.728Z" fill="#C4C4C4" stroke="black"/>
<path id="Rectangle 22_14" d="M606.728 282.5L611.343 270.5H635.272L630.657 282.5H606.728Z" fill="#C4C4C4" stroke="black"/>
<path id="Rectangle 23_14" d="M630.728 282.5L635.343 270.5H659.272L654.657 282.5H630.728Z" fill="#C4C4C4" stroke="black"/>
<path id="Rectangle 24_14" d="M654.728 282.5L659.343 270.5H683.272L678.657 282.5H654.728Z" fill="#C4C4C4" stroke="black"/>
<path id="Rectangle 25_14" d="M678.728 282.5L683.343 270.5H707.272L702.657 282.5H678.728Z" fill="#C4C4C4" stroke="black"/>
<path id="Rectangle 26_14" d="M702.728 282.5L707.343 270.5H731.272L726.657 282.5H702.728Z" fill="#C4C4C4" stroke="black"/>
<path id="Rectangle 27_14" d="M726.728 282.5L731.343 270.5H755.272L750.657 282.5H726.728Z" fill="#C4C4C4" stroke="black"/>
<path id="Rectangle 28_14" d="M750.728 282.5L755.343 270.5H779.272L774.657 282.5H750.728Z" fill="#C4C4C4" stroke="black"/>
<path id="Rectangle 29_14" d="M774.728 282.5L779.343 270.5H803.272L798.657 282.5H774.728Z" fill="#C4C4C4" stroke="black"/>
<path id="Rectangle 30_14" d="M798.728 282.5L803.343 270.5H827.272L822.657 282.5H798.728Z" fill="#C4C4C4" stroke="black"/>
<path id="Rectangle 31_14" d="M822.728 282.5L827.343 270.5H851.272L846.657 282.5H822.728Z" fill="#C4C4C4" stroke="black"/>
<path id="Rectangle 32_14" d="M846.728 282.5L851.343 270.5H875.272L870.657 282.5H846.728Z" fill="#C4C4C4" stroke="black"/>
<path id="Rectangle 33_14" d="M870.728 282.5L875.343 270.5H899.272L894.657 282.5H870.728Z" fill="#C4C4C4" stroke="black"/>
<path id="Rectangle 34_14" d="M894.728 282.5L899.343 270.5H923.272L918.657 282.5H894.728Z" fill="#C4C4C4" stroke="black"/>
<path id="Rectangle 35_14" d="M918.728 282.5L923.343 270.5H947.272L942.657 282.5H918.728Z" fill="#C4C4C4" stroke="black"/>
<path id="Rectangle 36_14" d="M942.728 282.5L947.343 270.5H971.272L966.657 282.5H942.728Z" fill="#C4C4C4" stroke="black"/>
<path id="Rectangle 37_14" d="M966.728 282.5L971.343 270.5H995.272L990.657 282.5H966.728Z" fill="#C4C4C4" stroke="black"/>
<path id="Rectangle 38_14" d="M990.728 282.5L995.343 270.5H1019.5V282.5H990.728Z" fill="#C4C4C4" stroke="black"/>
<path id="Rectangle 19_14" d="M534.728 282.5L539.343 270.5H563.272L558.657 282.5H534.728Z" fill="#C4C4C4" stroke="black"/>
<path id="Rectangle 20_14" d="M558.728 282.5L563.343 270.5H587.272L582.657 282.5H558.728Z" fill="#C4C4C4" stroke="black"/>
</g>
<g id="Group 15">
<path id="Rectangle 1_15" d="M103.728 300.5L108.343 288.5H132.272L127.657 300.5H103.728Z" fill="#C4C4C4" stroke="black"/>
<path id="Rectangle 39_15" d="M36.5196 300.5L36.9811 288.5H108.272L103.657 300.5H36.5196Z" fill="#C4C4C4" stroke="black"/>
<path id="Rectangle 2_15" d="M127.728 300.5L132.343 288.5H156.272L151.657 300.5H127.728Z" fill="#C4C4C4" stroke="black"/>
<path id="Rectangle 3_15" d="M151.728 300.5L156.343 288.5H180.272L175.657 300.5H151.728Z" fill="#C4C4C4" stroke="black"/>
<path id="Rectangle 4_15" d="M175.728 300.5L180.343 288.5H204.272L199.657 300.5H175.728Z" fill="#C4C4C4" stroke="black"/>
<path id="Rectangle 5_15" d="M199.728 300.5L204.343 288.5H228.272L223.657 300.5H199.728Z" fill="#C4C4C4" stroke="black"/>
<path id="Rectangle 6_15" d="M223.728 300.5L228.343 288.5H252.272L247.657 300.5H223.728Z" fill="#C4C4C4" stroke="black"/>
<path id="Rectangle 7_15" d="M247.728 300.5L252.343 288.5H276.272L271.657 300.5H247.728Z" fill="#C4C4C4" stroke="black"/>
<path id="Rectangle 8_15" d="M271.728 300.5L276.343 288.5H300.272L295.657 300.5H271.728Z" fill="#C4C4C4" stroke="black"/>
<path id="Rectangle 9_15" d="M295.728 300.5L300.343 288.5H324.272L319.657 300.5H295.728Z" fill="#C4C4C4" stroke="black"/>
<path id="Rectangle 10_15" d="M319.728 300.5L324.343 288.5H348.272L343.657 300.5H319.728Z" fill="#C4C4C4" stroke="black"/>
<path id="Rectangle 11_15" d="M343.728 300.5L348.343 288.5H372.272L367.657 300.5H343.728Z" fill="#C4C4C4" stroke="black"/>
<path id="Rectangle 12_15" d="M367.728 300.5L372.343 288.5H396.272L391.657 300.5H367.728Z" fill="#C4C4C4" stroke="black"/>
<path id="Rectangle 13_15" d="M391.728 300.5L396.343 288.5H420.272L415.657 300.5H391.728Z" fill="#C4C4C4" stroke="black"/>
<path id="Rectangle 14_15" d="M415.728 300.5L420.343 288.5H444.272L439.657 300.5H415.728Z" fill="#C4C4C4" stroke="black"/>
<path id="Rectangle 15_15" d="M439.728 300.5L444.343 288.5H468.272L463.657 300.5H439.728Z" fill="#C4C4C4" stroke="black"/>
<path id="Rectangle 16_15" d="M463.728 300.5L468.343 288.5H492.272L487.657 300.5H463.728Z" fill="#C4C4C4" stroke="black"/>
<path id="Rectangle 17_15" d="M487.728 300.5L492.343 288.5H516.272L511.657 300.5H487.728Z" fill="#C4C4C4" stroke="black"/>
<path id="Rectangle 18_15" d="M511.728 300.5L516.343 288.5H540.272L535.657 300.5H511.728Z" fill="#C4C4C4" stroke="black"/>
<path id="Rectangle 21_15" d="M583.728 300.5L588.343 288.5H612.272L607.657 300.5H583.728Z" fill="#C4C4C4" stroke="black"/>
<path id="Rectangle 22_15" d="M607.728 300.5L612.343 288.5H636.272L631.657 300.5H607.728Z" fill="#C4C4C4" stroke="black"/>
<path id="Rectangle 23_15" d="M631.728 300.5L636.343 288.5H660.272L655.657 300.5H631.728Z" fill="#C4C4C4" stroke="black"/>
<path id="Rectangle 24_15" d="M655.728 300.5L660.343 288.5H684.272L679.657 300.5H655.728Z" fill="#C4C4C4" stroke="black"/>
<path id="Rectangle 25_15" d="M679.728 300.5L684.343 288.5H708.272L703.657 300.5H679.728Z" fill="#C4C4C4" stroke="black"/>
<path id="Rectangle 26_15" d="M703.728 300.5L708.343 288.5H732.272L727.657 300.5H703.728Z" fill="#C4C4C4" stroke="black"/>
<path id="Rectangle 27_15" d="M727.728 300.5L732.343 288.5H756.272L751.657 300.5H727.728Z" fill="#C4C4C4" stroke="black"/>
<path id="Rectangle 28_15" d="M751.728 300.5L756.343 288.5H780.272L775.657 300.5H751.728Z" fill="#C4C4C4" stroke="black"/>
<path id="Rectangle 29_15" d="M775.728 300.5L780.343 288.5H804.272L799.657 300.5H775.728Z" fill="#C4C4C4" stroke="black"/>
<path id="Rectangle 30_15" d="M799.728 300.5L804.343 288.5H828.272L823.657 300.5H799.728Z" fill="#C4C4C4" stroke="black"/>
<path id="Rectangle 31_15" d="M823.728 300.5L828.343 288.5H852.272L847.657 300.5H823.728Z" fill="#C4C4C4" stroke="black"/>
<path id="Rectangle 32_15" d="M847.728 300.5L852.343 288.5H876.272L871.657 300.5H847.728Z" fill="#C4C4C4" stroke="black"/>
<path id="Rectangle 33_15" d="M871.728 300.5L876.343 288.5H900.272L895.657 300.5H871.728Z" fill="#C4C4C4" stroke="black"/>
<path id="Rectangle 34_15" d="M895.728 300.5L900.343 288.5H924.272L919.657 300.5H895.728Z" fill="#C4C4C4" stroke="black"/>
<path id="Rectangle 35_15" d="M919.728 300.5L924.343 288.5H948.272L943.657 300.5H919.728Z" fill="#C4C4C4" stroke="black"/>
<path id="Rectangle 36_15" d="M943.728 300.5L948.343 288.5H972.272L967.657 300.5H943.728Z" fill="#C4C4C4" stroke="black"/>
<path id="Rectangle 37_15" d="M967.728 300.5L972.343 288.5H996.272L991.657 300.5H967.728Z" fill="#C4C4C4" stroke="black"/>
<path id="Rectangle 38_15" d="M991.728 300.5L996.343 288.5H1020.5V300.5H991.728Z" fill="#C4C4C4" stroke="black"/>
<path id="Rectangle 19_15" d="M535.728 300.5L540.343 288.5H564.272L559.657 300.5H535.728Z" fill="#C4C4C4" stroke="black"/>
<path id="Rectangle 20_15" d="M559.728 300.5L564.343 288.5H588.272L583.657 300.5H559.728Z" fill="#C4C4C4" stroke="black"/>
</g>
<g id="Group 16">
<path id="Rectangle 1_16" d="M103.728 318.5L108.343 306.5H132.272L127.657 318.5H103.728Z" fill="#C4C4C4" stroke="black"/>
<path id="Rectangle 39_16" d="M36.5196 318.5L36.9811 306.5H108.272L103.657 318.5H36.5196Z" fill="#C4C4C4" stroke="black"/>
<path id="Rectangle 2_16" d="M127.728 318.5L132.343 306.5H156.272L151.657 318.5H127.728Z" fill="#C4C4C4" stroke="black"/>
<path id="Rectangle 3_16" d="M151.728 318.5L156.343 306.5H180.272L175.657 318.5H151.728Z" fill="#C4C4C4" stroke="black"/>
<path id="Rectangle 4_16" d="M175.728 318.5L180.343 306.5H204.272L199.657 318.5H175.728Z" fill="#C4C4C4" stroke="black"/>
<path id="Rectangle 5_16" d="M199.728 318.5L204.343 306.5H228.272L223.657 318.5H199.728Z" fill="#C4C4C4" stroke="black"/>
<path id="Rectangle 6_16" d="M223.728 318.5L228.343 306.5H252.272L247.657 318.5H223.728Z" fill="#C4C4C4" stroke="black"/>
<path id="Rectangle 7_16" d="M247.728 318.5L252.343 306.5H276.272L271.657 318.5H247.728Z" fill="#C4C4C4" stroke="black"/>
<path id="Rectangle 8_16" d="M271.728 318.5L276.343 306.5H300.272L295.657 318.5H271.728Z" fill="#C4C4C4" stroke="black"/>
<path id="Rectangle 9_16" d="M295.728 318.5L300.343 306.5H324.272L319.657 318.5H295.728Z" fill="#C4C4C4" stroke="black"/>
<path id="Rectangle 10_16" d="M319.728 318.5L324.343 306.5H348.272L343.657 318.5H319.728Z" fill="#C4C4C4" stroke="black"/>
<path id="Rectangle 11_16" d="M343.728 318.5L348.343 306.5H372.272L367.657 318.5H343.728Z" fill="#C4C4C4" stroke="black"/>
<path id="Rectangle 12_16" d="M367.728 318.5L372.343 306.5H396.272L391.657 318.5H367.728Z" fill="#C4C4C4" stroke="black"/>
<path id="Rectangle 13_16" d="M391.728 318.5L396.343 306.5H420.272L415.657 318.5H391.728Z" fill="#C4C4C4" stroke="black"/>
<path id="Rectangle 14_16" d="M415.728 318.5L420.343 306.5H444.272L439.657 318.5H415.728Z" fill="#C4C4C4" stroke="black"/>
<path id="Rectangle 15_16" d="M439.728 318.5L444.343 306.5H468.272L463.657 318.5H439.728Z" fill="#C4C4C4" stroke="black"/>
<path id="Rectangle 16_16" d="M463.728 318.5L468.343 306.5H492.272L487.657 318.5H463.728Z" fill="#C4C4C4" stroke="black"/>
<path id="Rectangle 17_16" d="M487.728 318.5L492.343 306.5H516.272L511.657 318.5H487.728Z" fill="#C4C4C4" stroke="black"/>
<path id="Rectangle 18_16" d="M511.728 318.5L516.343 306.5H540.272L535.657 318.5H511.728Z" fill="#C4C4C4" stroke="black"/>
<path id="Rectangle 21_16" d="M583.728 318.5L588.343 306.5H612.272L607.657 318.5H583.728Z" fill="#C4C4C4" stroke="black"/>
<path id="Rectangle 22_16" d="M607.728 318.5L612.343 306.5H636.272L631.657 318.5H607.728Z" fill="#C4C4C4" stroke="black"/>
<path id="Rectangle 23_16" d="M631.728 318.5L636.343 306.5H660.272L655.657 318.5H631.728Z" fill="#C4C4C4" stroke="black"/>
<path id="Rectangle 24_16" d="M655.728 318.5L660.343 306.5H684.272L679.657 318.5H655.728Z" fill="#C4C4C4" stroke="black"/>
<path id="Rectangle 25_16" d="M679.728 318.5L684.343 306.5H708.272L703.657 318.5H679.728Z" fill="#C4C4C4" stroke="black"/>
<path id="Rectangle 26_16" d="M703.728 318.5L708.343 306.5H732.272L727.657 318.5H703.728Z" fill="#C4C4C4" stroke="black"/>
<path id="Rectangle 27_16" d="M727.728 318.5L732.343 306.5H756.272L751.657 318.5H727.728Z" fill="#C4C4C4" stroke="black"/>
<path id="Rectangle 28_16" d="M751.728 318.5L756.343 306.5H780.272L775.657 318.5H751.728Z" fill="#C4C4C4" stroke="black"/>
<path id="Rectangle 29_16" d="M775.728 318.5L780.343 306.5H804.272L799.657 318.5H775.728Z" fill="#C4C4C4" stroke="black"/>
<path id="Rectangle 30_16" d="M799.728 318.5L804.343 306.5H828.272L823.657 318.5H799.728Z" fill="#C4C4C4" stroke="black"/>
<path id="Rectangle 31_16" d="M823.728 318.5L828.343 306.5H852.272L847.657 318.5H823.728Z" fill="#C4C4C4" stroke="black"/>
<path id="Rectangle 32_16" d="M847.728 318.5L852.343 306.5H876.272L871.657 318.5H847.728Z" fill="#C4C4C4" stroke="black"/>
<path id="Rectangle 33_16" d="M871.728 318.5L876.343 306.5H900.272L895.657 318.5H871.728Z" fill="#C4C4C4" stroke="black"/>
<path id="Rectangle 34_16" d="M895.728 318.5L900.343 306.5H924.272L919.657 318.5H895.728Z" fill="#C4C4C4" stroke="black"/>
<path id="Rectangle 35_16" d="M919.728 318.5L924.343 306.5H948.272L943.657 318.5H919.728Z" fill="#C4C4C4" stroke="black"/>
<path id="Rectangle 36_16" d="M943.728 318.5L948.343 306.5H972.272L967.657 318.5H943.728Z" fill="#C4C4C4" stroke="black"/>
<path id="Rectangle 37_16" d="M967.728 318.5L972.343 306.5H996.272L991.657 318.5H967.728Z" fill="#C4C4C4" stroke="black"/>
<path id="Rectangle 38_16" d="M991.728 318.5L996.343 306.5H1020.5V318.5H991.728Z" fill="#C4C4C4" stroke="black"/>
<path id="Rectangle 19_16" d="M535.728 318.5L540.343 306.5H564.272L559.657 318.5H535.728Z" fill="#C4C4C4" stroke="black"/>
<path id="Rectangle 20_16" d="M559.728 318.5L564.343 306.5H588.272L583.657 318.5H559.728Z" fill="#C4C4C4" stroke="black"/>
</g>
<g id="Group 17">
<path id="Rectangle 1_17" d="M103.728 336.5L108.343 324.5H132.272L127.657 336.5H103.728Z" fill="#C4C4C4" stroke="black"/>
<path id="Rectangle 39_17" d="M36.5196 336.5L36.9811 324.5H108.272L103.657 336.5H36.5196Z" fill="#C4C4C4" stroke="black"/>
<path id="Rectangle 2_17" d="M127.728 336.5L132.343 324.5H156.272L151.657 336.5H127.728Z" fill="#C4C4C4" stroke="black"/>
<path id="Rectangle 3_17" d="M151.728 336.5L156.343 324.5H180.272L175.657 336.5H151.728Z" fill="#C4C4C4" stroke="black"/>
<path id="Rectangle 4_17" d="M175.728 336.5L180.343 324.5H204.272L199.657 336.5H175.728Z" fill="#C4C4C4" stroke="black"/>
<path id="Rectangle 5_17" d="M199.728 336.5L204.343 324.5H228.272L223.657 336.5H199.728Z" fill="#C4C4C4" stroke="black"/>
<path id="Rectangle 6_17" d="M223.728 336.5L228.343 324.5H252.272L247.657 336.5H223.728Z" fill="#C4C4C4" stroke="black"/>
<path id="Rectangle 7_17" d="M247.728 336.5L252.343 324.5H276.272L271.657 336.5H247.728Z" fill="#C4C4C4" stroke="black"/>
<path id="Rectangle 8_17" d="M271.728 336.5L276.343 324.5H300.272L295.657 336.5H271.728Z" fill="#C4C4C4" stroke="black"/>
<path id="Rectangle 9_17" d="M295.728 336.5L300.343 324.5H324.272L319.657 336.5H295.728Z" fill="#C4C4C4" stroke="black"/>
<path id="Rectangle 10_17" d="M319.728 336.5L324.343 324.5H348.272L343.657 336.5H319.728Z" fill="#C4C4C4" stroke="black"/>
<path id="Rectangle 11_17" d="M343.728 336.5L348.343 324.5H372.272L367.657 336.5H343.728Z" fill="#C4C4C4" stroke="black"/>
<path id="Rectangle 12_17" d="M367.728 336.5L372.343 324.5H396.272L391.657 336.5H367.728Z" fill="#C4C4C4" stroke="black"/>
<path id="Rectangle 13_17" d="M391.728 336.5L396.343 324.5H420.272L415.657 336.5H391.728Z" fill="#C4C4C4" stroke="black"/>
<path id="Rectangle 14_17" d="M415.728 336.5L420.343 324.5H444.272L439.657 336.5H415.728Z" fill="#C4C4C4" stroke="black"/>
<path id="Rectangle 15_17" d="M439.728 336.5L444.343 324.5H468.272L463.657 336.5H439.728Z" fill="#C4C4C4" stroke="black"/>
<path id="Rectangle 16_17" d="M463.728 336.5L468.343 324.5H492.272L487.657 336.5H463.728Z" fill="#C4C4C4" stroke="black"/>
<path id="Rectangle 17_17" d="M487.728 336.5L492.343 324.5H516.272L511.657 336.5H487.728Z" fill="#C4C4C4" stroke="black"/>
<path id="Rectangle 18_17" d="M511.728 336.5L516.343 324.5H540.272L535.657 336.5H511.728Z" fill="#C4C4C4" stroke="black"/>
<path id="Rectangle 21_17" d="M583.728 336.5L588.343 324.5H612.272L607.657 336.5H583.728Z" fill="#C4C4C4" stroke="black"/>
<path id="Rectangle 22_17" d="M607.728 336.5L612.343 324.5H636.272L631.657 336.5H607.728Z" fill="#C4C4C4" stroke="black"/>
<path id="Rectangle 23_17" d="M631.728 336.5L636.343 324.5H660.272L655.657 336.5H631.728Z" fill="#C4C4C4" stroke="black"/>
<path id="Rectangle 24_17" d="M655.728 336.5L660.343 324.5H684.272L679.657 336.5H655.728Z" fill="#C4C4C4" stroke="black"/>
<path id="Rectangle 25_17" d="M679.728 336.5L684.343 324.5H708.272L703.657 336.5H679.728Z" fill="#C4C4C4" stroke="black"/>
<path id="Rectangle 26_17" d="M703.728 336.5L708.343 324.5H732.272L727.657 336.5H703.728Z" fill="#C4C4C4" stroke="black"/>
<path id="Rectangle 27_17" d="M727.728 336.5L732.343 324.5H756.272L751.657 336.5H727.728Z" fill="#C4C4C4" stroke="black"/>
<path id="Rectangle 28_17" d="M751.728 336.5L756.343 324.5H780.272L775.657 336.5H751.728Z" fill="#C4C4C4" stroke="black"/>
<path id="Rectangle 29_17" d="M775.728 336.5L780.343 324.5H804.272L799.657 336.5H775.728Z" fill="#C4C4C4" stroke="black"/>
<path id="Rectangle 30_17" d="M799.728 336.5L804.343 324.5H828.272L823.657 336.5H799.728Z" fill="#C4C4C4" stroke="black"/>
<path id="Rectangle 31_17" d="M823.728 336.5L828.343 324.5H852.272L847.657 336.5H823.728Z" fill="#C4C4C4" stroke="black"/>
<path id="Rectangle 32_17" d="M847.728 336.5L852.343 324.5H876.272L871.657 336.5H847.728Z" fill="#C4C4C4" stroke="black"/>
<path id="Rectangle 33_17" d="M871.728 336.5L876.343 324.5H900.272L895.657 336.5H871.728Z" fill="#C4C4C4" stroke="black"/>
<path id="Rectangle 34_17" d="M895.728 336.5L900.343 324.5H924.272L919.657 336.5H895.728Z" fill="#C4C4C4" stroke="black"/>
<path id="Rectangle 35_17" d="M919.728 336.5L924.343 324.5H948.272L943.657 336.5H919.728Z" fill="#C4C4C4" stroke="black"/>
<path id="Rectangle 36_17" d="M943.728 336.5L948.343 324.5H972.272L967.657 336.5H943.728Z" fill="#C4C4C4" stroke="black"/>
<path id="Rectangle 37_17" d="M967.728 336.5L972.343 324.5H996.272L991.657 336.5H967.728Z" fill="#C4C4C4" stroke="black"/>
<path id="Rectangle 38_17" d="M991.728 336.5L996.343 324.5H1020.5V336.5H991.728Z" fill="#C4C4C4" stroke="black"/>
<path id="Rectangle 19_17" d="M535.728 336.5L540.343 324.5H564.272L559.657 336.5H535.728Z" fill="#C4C4C4" stroke="black"/>
<path id="Rectangle 20_17" d="M559.728 336.5L564.343 324.5H588.272L583.657 336.5H559.728Z" fill="#C4C4C4" stroke="black"/>
</g>
<g id="Group 18">
<path id="Rectangle 1_18" d="M103.728 354.5L108.343 342.5H132.272L127.657 354.5H103.728Z" fill="#C4C4C4" stroke="black"/>
<path id="Rectangle 39_18" d="M36.5196 354.5L36.9811 342.5H108.272L103.657 354.5H36.5196Z" fill="#C4C4C4" stroke="black"/>
<path id="Rectangle 2_18" d="M127.728 354.5L132.343 342.5H156.272L151.657 354.5H127.728Z" fill="#C4C4C4" stroke="black"/>
<path id="Rectangle 3_18" d="M151.728 354.5L156.343 342.5H180.272L175.657 354.5H151.728Z" fill="#C4C4C4" stroke="black"/>
<path id="Rectangle 4_18" d="M175.728 354.5L180.343 342.5H204.272L199.657 354.5H175.728Z" fill="#C4C4C4" stroke="black"/>
<path id="Rectangle 5_18" d="M199.728 354.5L204.343 342.5H228.272L223.657 354.5H199.728Z" fill="#C4C4C4" stroke="black"/>
<path id="Rectangle 6_18" d="M223.728 354.5L228.343 342.5H252.272L247.657 354.5H223.728Z" fill="#C4C4C4" stroke="black"/>
<path id="Rectangle 7_18" d="M247.728 354.5L252.343 342.5H276.272L271.657 354.5H247.728Z" fill="#C4C4C4" stroke="black"/>
<path id="Rectangle 8_18" d="M271.728 354.5L276.343 342.5H300.272L295.657 354.5H271.728Z" fill="#C4C4C4" stroke="black"/>
<path id="Rectangle 9_18" d="M295.728 354.5L300.343 342.5H324.272L319.657 354.5H295.728Z" fill="#C4C4C4" stroke="black"/>
<path id="Rectangle 10_18" d="M319.728 354.5L324.343 342.5H348.272L343.657 354.5H319.728Z" fill="#C4C4C4" stroke="black"/>
<path id="Rectangle 11_18" d="M343.728 354.5L348.343 342.5H372.272L367.657 354.5H343.728Z" fill="#C4C4C4" stroke="black"/>
<path id="Rectangle 12_18" d="M367.728 354.5L372.343 342.5H396.272L391.657 354.5H367.728Z" fill="#C4C4C4" stroke="black"/>
<path id="Rectangle 13_18" d="M391.728 354.5L396.343 342.5H420.272L415.657 354.5H391.728Z" fill="#C4C4C4" stroke="black"/>
<path id="Rectangle 14_18" d="M415.728 354.5L420.343 342.5H444.272L439.657 354.5H415.728Z" fill="#C4C4C4" stroke="black"/>
<path id="Rectangle 15_18" d="M439.728 354.5L444.343 342.5H468.272L463.657 354.5H439.728Z" fill="#C4C4C4" stroke="black"/>
<path id="Rectangle 16_18" d="M463.728 354.5L468.343 342.5H492.272L487.657 354.5H463.728Z" fill="#C4C4C4" stroke="black"/>
<path id="Rectangle 17_18" d="M487.728 354.5L492.343 342.5H516.272L511.657 354.5H487.728Z" fill="#C4C4C4" stroke="black"/>
<path id="Rectangle 18_18" d="M511.728 354.5L516.343 342.5H540.272L535.657 354.5H511.728Z" fill="#C4C4C4" stroke="black"/>
<path id="Rectangle 21_18" d="M583.728 354.5L588.343 342.5H612.272L607.657 354.5H583.728Z" fill="#C4C4C4" stroke="black"/>
<path id="Rectangle 22_18" d="M607.728 354.5L612.343 342.5H636.272L631.657 354.5H607.728Z" fill="#C4C4C4" stroke="black"/>
<path id="Rectangle 23_18" d="M631.728 354.5L636.343 342.5H660.272L655.657 354.5H631.728Z" fill="#C4C4C4" stroke="black"/>
<path id="Rectangle 24_18" d="M655.728 354.5L660.343 342.5H684.272L679.657 354.5H655.728Z" fill="#C4C4C4" stroke="black"/>
<path id="Rectangle 25_18" d="M679.728 354.5L684.343 342.5H708.272L703.657 354.5H679.728Z" fill="#C4C4C4" stroke="black"/>
<path id="Rectangle 26_18" d="M703.728 354.5L708.343 342.5H732.272L727.657 354.5H703.728Z" fill="#C4C4C4" stroke="black"/>
<path id="Rectangle 27_18" d="M727.728 354.5L732.343 342.5H756.272L751.657 354.5H727.728Z" fill="#C4C4C4" stroke="black"/>
<path id="Rectangle 28_18" d="M751.728 354.5L756.343 342.5H780.272L775.657 354.5H751.728Z" fill="#C4C4C4" stroke="black"/>
<path id="Rectangle 29_18" d="M775.728 354.5L780.343 342.5H804.272L799.657 354.5H775.728Z" fill="#C4C4C4" stroke="black"/>
<path id="Rectangle 30_18" d="M799.728 354.5L804.343 342.5H828.272L823.657 354.5H799.728Z" fill="#C4C4C4" stroke="black"/>
<path id="Rectangle 31_18" d="M823.728 354.5L828.343 342.5H852.272L847.657 354.5H823.728Z" fill="#C4C4C4" stroke="black"/>
<path id="Rectangle 32_18" d="M847.728 354.5L852.343 342.5H876.272L871.657 354.5H847.728Z" fill="#C4C4C4" stroke="black"/>
<path id="Rectangle 33_18" d="M871.728 354.5L876.343 342.5H900.272L895.657 354.5H871.728Z" fill="#C4C4C4" stroke="black"/>
<path id="Rectangle 34_18" d="M895.728 354.5L900.343 342.5H924.272L919.657 354.5H895.728Z" fill="#C4C4C4" stroke="black"/>
<path id="Rectangle 35_18" d="M919.728 354.5L924.343 342.5H948.272L943.657 354.5H919.728Z" fill="#C4C4C4" stroke="black"/>
<path id="Rectangle 36_18" d="M943.728 354.5L948.343 342.5H972.272L967.657 354.5H943.728Z" fill="#C4C4C4" stroke="black"/>
<path id="Rectangle 37_18" d="M967.728 354.5L972.343 342.5H996.272L991.657 354.5H967.728Z" fill="#C4C4C4" stroke="black"/>
<path id="Rectangle 38_18" d="M991.728 354.5L996.343 342.5H1020.5V354.5H991.728Z" fill="#C4C4C4" stroke="black"/>
<path id="Rectangle 19_18" d="M535.728 354.5L540.343 342.5H564.272L559.657 354.5H535.728Z" fill="#C4C4C4" stroke="black"/>
<path id="Rectangle 20_18" d="M559.728 354.5L564.343 342.5H588.272L583.657 354.5H559.728Z" fill="#C4C4C4" stroke="black"/>
</g>
<g id="Group 19">
<path id="Rectangle 1_19" d="M102.728 372.5L107.343 360.5H131.272L126.657 372.5H102.728Z" fill="#C4C4C4" stroke="black"/>
<path id="Rectangle 39_19" d="M35.5196 372.5L35.9811 360.5H107.272L102.657 372.5H35.5196Z" fill="#C4C4C4" stroke="black"/>
<path id="Rectangle 2_19" d="M126.728 372.5L131.343 360.5H155.272L150.657 372.5H126.728Z" fill="#C4C4C4" stroke="black"/>
<path id="Rectangle 3_19" d="M150.728 372.5L155.343 360.5H179.272L174.657 372.5H150.728Z" fill="#C4C4C4" stroke="black"/>
<path id="Rectangle 4_19" d="M174.728 372.5L179.343 360.5H203.272L198.657 372.5H174.728Z" fill="#C4C4C4" stroke="black"/>
<path id="Rectangle 5_19" d="M198.728 372.5L203.343 360.5H227.272L222.657 372.5H198.728Z" fill="#C4C4C4" stroke="black"/>
<path id="Rectangle 6_19" d="M222.728 372.5L227.343 360.5H251.272L246.657 372.5H222.728Z" fill="#C4C4C4" stroke="black"/>
<path id="Rectangle 7_19" d="M246.728 372.5L251.343 360.5H275.272L270.657 372.5H246.728Z" fill="#C4C4C4" stroke="black"/>
<path id="Rectangle 8_19" d="M270.728 372.5L275.343 360.5H299.272L294.657 372.5H270.728Z" fill="#C4C4C4" stroke="black"/>
<path id="Rectangle 9_19" d="M294.728 372.5L299.343 360.5H323.272L318.657 372.5H294.728Z" fill="#C4C4C4" stroke="black"/>
<path id="Rectangle 10_19" d="M318.728 372.5L323.343 360.5H347.272L342.657 372.5H318.728Z" fill="#C4C4C4" stroke="black"/>
<path id="Rectangle 11_19" d="M342.728 372.5L347.343 360.5H371.272L366.657 372.5H342.728Z" fill="#C4C4C4" stroke="black"/>
<path id="Rectangle 12_19" d="M366.728 372.5L371.343 360.5H395.272L390.657 372.5H366.728Z" fill="#C4C4C4" stroke="black"/>
<path id="Rectangle 13_19" d="M390.728 372.5L395.343 360.5H419.272L414.657 372.5H390.728Z" fill="#C4C4C4" stroke="black"/>
<path id="Rectangle 14_19" d="M414.728 372.5L419.343 360.5H443.272L438.657 372.5H414.728Z" fill="#C4C4C4" stroke="black"/>
<path id="Rectangle 15_19" d="M438.728 372.5L443.343 360.5H467.272L462.657 372.5H438.728Z" fill="#C4C4C4" stroke="black"/>
<path id="Rectangle 16_19" d="M462.728 372.5L467.343 360.5H491.272L486.657 372.5H462.728Z" fill="#C4C4C4" stroke="black"/>
<path id="Rectangle 17_19" d="M486.728 372.5L491.343 360.5H515.272L510.657 372.5H486.728Z" fill="#C4C4C4" stroke="black"/>
<path id="Rectangle 18_19" d="M510.728 372.5L515.343 360.5H539.272L534.657 372.5H510.728Z" fill="#C4C4C4" stroke="black"/>
<path id="Rectangle 21_19" d="M582.728 372.5L587.343 360.5H611.272L606.657 372.5H582.728Z" fill="#C4C4C4" stroke="black"/>
<path id="Rectangle 22_19" d="M606.728 372.5L611.343 360.5H635.272L630.657 372.5H606.728Z" fill="#C4C4C4" stroke="black"/>
<path id="Rectangle 23_19" d="M630.728 372.5L635.343 360.5H659.272L654.657 372.5H630.728Z" fill="#C4C4C4" stroke="black"/>
<path id="Rectangle 24_19" d="M654.728 372.5L659.343 360.5H683.272L678.657 372.5H654.728Z" fill="#C4C4C4" stroke="black"/>
<path id="Rectangle 25_19" d="M678.728 372.5L683.343 360.5H707.272L702.657 372.5H678.728Z" fill="#C4C4C4" stroke="black"/>
<path id="Rectangle 26_19" d="M702.728 372.5L707.343 360.5H731.272L726.657 372.5H702.728Z" fill="#C4C4C4" stroke="black"/>
<path id="Rectangle 27_19" d="M726.728 372.5L731.343 360.5H755.272L750.657 372.5H726.728Z" fill="#C4C4C4" stroke="black"/>
<path id="Rectangle 28_19" d="M750.728 372.5L755.343 360.5H779.272L774.657 372.5H750.728Z" fill="#C4C4C4" stroke="black"/>
<path id="Rectangle 29_19" d="M774.728 372.5L779.343 360.5H803.272L798.657 372.5H774.728Z" fill="#C4C4C4" stroke="black"/>
<path id="Rectangle 30_19" d="M798.728 372.5L803.343 360.5H827.272L822.657 372.5H798.728Z" fill="#C4C4C4" stroke="black"/>
<path id="Rectangle 31_19" d="M822.728 372.5L827.343 360.5H851.272L846.657 372.5H822.728Z" fill="#C4C4C4" stroke="black"/>
<path id="Rectangle 32_19" d="M846.728 372.5L851.343 360.5H875.272L870.657 372.5H846.728Z" fill="#C4C4C4" stroke="black"/>
<path id="Rectangle 33_19" d="M870.728 372.5L875.343 360.5H899.272L894.657 372.5H870.728Z" fill="#C4C4C4" stroke="black"/>
<path id="Rectangle 34_19" d="M894.728 372.5L899.343 360.5H923.272L918.657 372.5H894.728Z" fill="#C4C4C4" stroke="black"/>
<path id="Rectangle 35_19" d="M918.728 372.5L923.343 360.5H947.272L942.657 372.5H918.728Z" fill="#C4C4C4" stroke="black"/>
<path id="Rectangle 36_19" d="M942.728 372.5L947.343 360.5H971.272L966.657 372.5H942.728Z" fill="#C4C4C4" stroke="black"/>
<path id="Rectangle 37_19" d="M966.728 372.5L971.343 360.5H995.272L990.657 372.5H966.728Z" fill="#C4C4C4" stroke="black"/>
<path id="Rectangle 38_19" d="M990.728 372.5L995.343 360.5H1019.5V372.5H990.728Z" fill="#C4C4C4" stroke="black"/>
<path id="Rectangle 19_19" d="M534.728 372.5L539.343 360.5H563.272L558.657 372.5H534.728Z" fill="#C4C4C4" stroke="black"/>
<path id="Rectangle 20_19" d="M558.728 372.5L563.343 360.5H587.272L582.657 372.5H558.728Z" fill="#C4C4C4" stroke="black"/>
</g>
<g id="Group 20">
<path id="Rectangle 1_20" d="M103.728 390.5L108.343 378.5H132.272L127.657 390.5H103.728Z" fill="#C4C4C4" stroke="black"/>
<path id="Rectangle 39_20" d="M36.5196 390.5L36.9811 378.5H108.272L103.657 390.5H36.5196Z" fill="#C4C4C4" stroke="black"/>
<path id="Rectangle 2_20" d="M127.728 390.5L132.343 378.5H156.272L151.657 390.5H127.728Z" fill="#C4C4C4" stroke="black"/>
<path id="Rectangle 3_20" d="M151.728 390.5L156.343 378.5H180.272L175.657 390.5H151.728Z" fill="#C4C4C4" stroke="black"/>
<path id="Rectangle 4_20" d="M175.728 390.5L180.343 378.5H204.272L199.657 390.5H175.728Z" fill="#C4C4C4" stroke="black"/>
<path id="Rectangle 5_20" d="M199.728 390.5L204.343 378.5H228.272L223.657 390.5H199.728Z" fill="#C4C4C4" stroke="black"/>
<path id="Rectangle 6_20" d="M223.728 390.5L228.343 378.5H252.272L247.657 390.5H223.728Z" fill="#C4C4C4" stroke="black"/>
<path id="Rectangle 7_20" d="M247.728 390.5L252.343 378.5H276.272L271.657 390.5H247.728Z" fill="#C4C4C4" stroke="black"/>
<path id="Rectangle 8_20" d="M271.728 390.5L276.343 378.5H300.272L295.657 390.5H271.728Z" fill="#C4C4C4" stroke="black"/>
<path id="Rectangle 9_20" d="M295.728 390.5L300.343 378.5H324.272L319.657 390.5H295.728Z" fill="#C4C4C4" stroke="black"/>
<path id="Rectangle 10_20" d="M319.728 390.5L324.343 378.5H348.272L343.657 390.5H319.728Z" fill="#C4C4C4" stroke="black"/>
<path id="Rectangle 11_20" d="M343.728 390.5L348.343 378.5H372.272L367.657 390.5H343.728Z" fill="#C4C4C4" stroke="black"/>
<path id="Rectangle 12_20" d="M367.728 390.5L372.343 378.5H396.272L391.657 390.5H367.728Z" fill="#C4C4C4" stroke="black"/>
<path id="Rectangle 13_20" d="M391.728 390.5L396.343 378.5H420.272L415.657 390.5H391.728Z" fill="#C4C4C4" stroke="black"/>
<path id="Rectangle 14_20" d="M415.728 390.5L420.343 378.5H444.272L439.657 390.5H415.728Z" fill="#C4C4C4" stroke="black"/>
<path id="Rectangle 15_20" d="M439.728 390.5L444.343 378.5H468.272L463.657 390.5H439.728Z" fill="#C4C4C4" stroke="black"/>
<path id="Rectangle 16_20" d="M463.728 390.5L468.343 378.5H492.272L487.657 390.5H463.728Z" fill="#C4C4C4" stroke="black"/>
<path id="Rectangle 17_20" d="M487.728 390.5L492.343 378.5H516.272L511.657 390.5H487.728Z" fill="#C4C4C4" stroke="black"/>
<path id="Rectangle 18_20" d="M511.728 390.5L516.343 378.5H540.272L535.657 390.5H511.728Z" fill="#C4C4C4" stroke="black"/>
<path id="Rectangle 21_20" d="M583.728 390.5L588.343 378.5H612.272L607.657 390.5H583.728Z" fill="#C4C4C4" stroke="black"/>
<path id="Rectangle 22_20" d="M607.728 390.5L612.343 378.5H636.272L631.657 390.5H607.728Z" fill="#C4C4C4" stroke="black"/>
<path id="Rectangle 23_20" d="M631.728 390.5L636.343 378.5H660.272L655.657 390.5H631.728Z" fill="#C4C4C4" stroke="black"/>
<path id="Rectangle 24_20" d="M655.728 390.5L660.343 378.5H684.272L679.657 390.5H655.728Z" fill="#C4C4C4" stroke="black"/>
<path id="Rectangle 25_20" d="M679.728 390.5L684.343 378.5H708.272L703.657 390.5H679.728Z" fill="#C4C4C4" stroke="black"/>
<path id="Rectangle 26_20" d="M703.728 390.5L708.343 378.5H732.272L727.657 390.5H703.728Z" fill="#C4C4C4" stroke="black"/>
<path id="Rectangle 27_20" d="M727.728 390.5L732.343 378.5H756.272L751.657 390.5H727.728Z" fill="#C4C4C4" stroke="black"/>
<path id="Rectangle 28_20" d="M751.728 390.5L756.343 378.5H780.272L775.657 390.5H751.728Z" fill="#C4C4C4" stroke="black"/>
<path id="Rectangle 29_20" d="M775.728 390.5L780.343 378.5H804.272L799.657 390.5H775.728Z" fill="#C4C4C4" stroke="black"/>
<path id="Rectangle 30_20" d="M799.728 390.5L804.343 378.5H828.272L823.657 390.5H799.728Z" fill="#C4C4C4" stroke="black"/>
<path id="Rectangle 31_20" d="M823.728 390.5L828.343 378.5H852.272L847.657 390.5H823.728Z" fill="#C4C4C4" stroke="black"/>
<path id="Rectangle 32_20" d="M847.728 390.5L852.343 378.5H876.272L871.657 390.5H847.728Z" fill="#C4C4C4" stroke="black"/>
<path id="Rectangle 33_20" d="M871.728 390.5L876.343 378.5H900.272L895.657 390.5H871.728Z" fill="#C4C4C4" stroke="black"/>
<path id="Rectangle 34_20" d="M895.728 390.5L900.343 378.5H924.272L919.657 390.5H895.728Z" fill="#C4C4C4" stroke="black"/>
<path id="Rectangle 35_20" d="M919.728 390.5L924.343 378.5H948.272L943.657 390.5H919.728Z" fill="#C4C4C4" stroke="black"/>
<path id="Rectangle 36_20" d="M943.728 390.5L948.343 378.5H972.272L967.657 390.5H943.728Z" fill="#C4C4C4" stroke="black"/>
<path id="Rectangle 37_20" d="M967.728 390.5L972.343 378.5H996.272L991.657 390.5H967.728Z" fill="#C4C4C4" stroke="black"/>
<path id="Rectangle 38_20" d="M991.728 390.5L996.343 378.5H1020.5V390.5H991.728Z" fill="#C4C4C4" stroke="black"/>
<path id="Rectangle 19_20" d="M535.728 390.5L540.343 378.5H564.272L559.657 390.5H535.728Z" fill="#C4C4C4" stroke="black"/>
<path id="Rectangle 20_20" d="M559.728 390.5L564.343 378.5H588.272L583.657 390.5H559.728Z" fill="#C4C4C4" stroke="black"/>
</g>
</g>
</svg>
